<svg xmlns="http://www.w3.org/2000/svg" viewBox="0 0 1280 1474" width="1280" height="1474"><defs><clipPath clipPathUnits="userSpaceOnUse" id="cp1"><path d="M0 2L1280 2L1280 1472L0 1472L0 2Z" /></clipPath></defs><style>tspan { white-space:pre }.shp0 { fill: #3138d1 } .shp1 { fill: #ffffff } .shp2 { fill: #3b43f2 } .shp3 { fill: none;stroke: #3b43f2;stroke-width: 4 } </style><g ><g ><g clip-path="url(#cp1)"><g ><path fill-rule="evenodd" class="shp0" d="M-441.24 656.29L-70.71 285.76C-69.55 284.61 -68.37 283.48 -67.16 282.38C-65.94 281.28 -64.7 280.21 -63.44 279.17C-62.17 278.14 -60.88 277.13 -59.57 276.15C-58.25 275.18 -56.92 274.24 -55.56 273.33C-54.2 272.42 -52.81 271.54 -51.41 270.7C-50.01 269.86 -48.58 269.05 -47.14 268.28C-45.7 267.51 -44.23 266.78 -42.75 266.08C-41.28 265.38 -39.78 264.71 -38.27 264.09C-36.76 263.46 -35.23 262.87 -33.69 262.32C-32.15 261.77 -30.59 261.26 -29.03 260.78C-27.46 260.31 -25.89 259.87 -24.3 259.47C-22.71 259.07 -21.11 258.72 -19.51 258.4C-17.9 258.08 -16.29 257.8 -14.67 257.56C-13.05 257.32 -11.43 257.12 -9.8 256.96C-8.17 256.8 -6.54 256.68 -4.91 256.6C-3.27 256.52 -1.64 256.48 0 256.48C1.64 256.48 3.27 256.52 4.91 256.6C6.54 256.68 8.17 256.8 9.8 256.96C11.43 257.12 13.05 257.32 14.67 257.56C16.29 257.8 17.9 258.08 19.51 258.4C21.11 258.72 22.71 259.07 24.3 259.47C25.89 259.87 27.46 260.31 29.03 260.78C30.59 261.26 32.15 261.77 33.69 262.32C35.23 262.87 36.76 263.46 38.27 264.09C39.78 264.71 41.28 265.38 42.75 266.08C44.23 266.78 45.7 267.51 47.14 268.28C48.58 269.06 50.01 269.86 51.41 270.7C52.81 271.54 54.2 272.42 55.56 273.33C56.92 274.24 58.25 275.18 59.57 276.15C60.88 277.13 62.17 278.14 63.44 279.17C64.7 280.21 65.94 281.28 67.16 282.38C68.37 283.48 69.55 284.61 70.71 285.76L441.24 656.29C442.39 657.45 443.52 658.63 444.62 659.84C445.72 661.06 446.79 662.3 447.83 663.56C448.86 664.83 449.87 666.12 450.85 667.43C451.82 668.75 452.76 670.08 453.67 671.44C454.58 672.8 455.46 674.19 456.3 675.59C457.14 676.99 457.94 678.42 458.72 679.86C459.49 681.3 460.22 682.77 460.92 684.25C461.62 685.72 462.29 687.22 462.91 688.73C463.54 690.24 464.13 691.77 464.68 693.31C465.23 694.85 465.74 696.41 466.22 697.97C466.69 699.54 467.13 701.11 467.53 702.7C467.93 704.29 468.28 705.89 468.6 707.49C468.92 709.1 469.2 710.71 469.44 712.33C469.68 713.95 469.88 715.57 470.04 717.2C470.2 718.83 470.32 720.46 470.4 722.09C470.48 723.73 470.52 725.36 470.52 727C470.52 728.64 470.48 730.27 470.4 731.91C470.32 733.54 470.2 735.17 470.04 736.8C469.88 738.43 469.68 740.05 469.44 741.67C469.2 743.29 468.92 744.9 468.6 746.51C468.28 748.11 467.93 749.71 467.53 751.3C467.13 752.89 466.69 754.46 466.22 756.03C465.74 757.59 465.23 759.15 464.68 760.69C464.13 762.23 463.54 763.76 462.91 765.27C462.29 766.78 461.62 768.28 460.92 769.75C460.22 771.23 459.49 772.7 458.72 774.14C457.94 775.58 457.14 777.01 456.3 778.41C455.46 779.81 454.58 781.2 453.67 782.56C452.76 783.92 451.82 785.25 450.85 786.57C449.87 787.88 448.86 789.17 447.83 790.44C446.79 791.7 445.72 792.94 444.62 794.16C443.52 795.37 442.39 796.55 441.24 797.71L70.71 1168.24C69.55 1169.39 68.37 1170.52 67.16 1171.62C65.94 1172.72 64.7 1173.79 63.44 1174.83C62.17 1175.86 60.88 1176.87 59.57 1177.85C58.25 1178.82 56.92 1179.76 55.56 1180.67C54.2 1181.58 52.81 1182.46 51.41 1183.3C50.01 1184.14 48.58 1184.94 47.14 1185.72C45.7 1186.49 44.23 1187.22 42.75 1187.92C41.28 1188.62 39.78 1189.29 38.27 1189.91C36.76 1190.54 35.23 1191.13 33.69 1191.68C32.15 1192.23 30.59 1192.74 29.03 1193.22C27.46 1193.69 25.89 1194.13 24.3 1194.53C22.71 1194.93 21.11 1195.28 19.51 1195.6C17.9 1195.92 16.29 1196.2 14.67 1196.44C13.05 1196.68 11.43 1196.88 9.8 1197.04C8.17 1197.2 6.54 1197.32 4.91 1197.4C3.27 1197.48 1.64 1197.52 0 1197.52C-1.64 1197.52 -3.27 1197.48 -4.91 1197.4C-6.54 1197.32 -8.17 1197.2 -9.8 1197.04C-11.43 1196.88 -13.05 1196.68 -14.67 1196.44C-16.29 1196.2 -17.9 1195.92 -19.51 1195.6C-21.11 1195.28 -22.71 1194.93 -24.3 1194.53C-25.89 1194.13 -27.46 1193.69 -29.03 1193.22C-30.59 1192.74 -32.15 1192.23 -33.69 1191.68C-35.23 1191.13 -36.76 1190.54 -38.27 1189.91C-39.78 1189.29 -41.28 1188.62 -42.75 1187.92C-44.23 1187.22 -45.7 1186.49 -47.14 1185.72C-48.58 1184.95 -50.01 1184.14 -51.41 1183.3C-52.81 1182.46 -54.2 1181.58 -55.56 1180.67C-56.92 1179.76 -58.25 1178.82 -59.57 1177.85C-60.88 1176.87 -62.17 1175.86 -63.44 1174.83C-64.7 1173.79 -65.94 1172.72 -67.16 1171.62C-68.37 1170.52 -69.55 1169.39 -70.71 1168.24L-441.24 797.71C-442.39 796.55 -443.52 795.37 -444.62 794.16C-445.72 792.94 -446.79 791.7 -447.83 790.44C-448.86 789.17 -449.87 787.88 -450.85 786.57C-451.82 785.25 -452.76 783.92 -453.67 782.56C-454.58 781.2 -455.46 779.81 -456.3 778.41C-457.14 777.01 -457.95 775.58 -458.72 774.14C-459.49 772.7 -460.22 771.23 -460.92 769.76C-461.62 768.28 -462.29 766.78 -462.91 765.27C-463.54 763.76 -464.13 762.23 -464.68 760.69C-465.23 759.15 -465.74 757.59 -466.22 756.03C-466.69 754.46 -467.13 752.89 -467.53 751.3C-467.93 749.71 -468.28 748.11 -468.6 746.51C-468.92 744.9 -469.2 743.29 -469.44 741.67C-469.68 740.05 -469.88 738.43 -470.04 736.8C-470.2 735.17 -470.32 733.54 -470.4 731.91C-470.48 730.27 -470.52 728.64 -470.52 727C-470.52 725.36 -470.48 723.73 -470.4 722.09C-470.32 720.46 -470.2 718.83 -470.04 717.2C-469.88 715.57 -469.68 713.95 -469.44 712.33C-469.2 710.71 -468.92 709.1 -468.6 707.49C-468.28 705.89 -467.93 704.29 -467.53 702.7C-467.13 701.11 -466.69 699.54 -466.22 697.97C-465.74 696.41 -465.23 694.85 -464.68 693.31C-464.13 691.77 -463.54 690.24 -462.91 688.73C-462.29 687.22 -461.62 685.72 -460.92 684.24C-460.22 682.77 -459.49 681.3 -458.72 679.86C-457.95 678.42 -457.14 676.99 -456.3 675.59C-455.46 674.19 -454.58 672.8 -453.67 671.44C-452.76 670.08 -451.82 668.75 -450.85 667.43C-449.87 666.12 -448.86 664.83 -447.83 663.56C-446.79 662.3 -445.72 661.06 -444.62 659.84C-443.52 658.63 -442.39 657.45 -441.24 656.29L-441.24 656.29Z" /><g ><g ><path fill-rule="evenodd" class="shp1" d="M65.94 500.47C65.94 501.84 64.84 502.94 63.47 502.94C62.11 502.94 61 501.84 61 500.47C61 499.11 62.11 498 63.47 498C64.84 498 65.94 499.11 65.94 500.47Z" /><path fill-rule="evenodd" class="shp1" d="M90.67 500.47C90.67 501.84 89.56 502.94 88.19 502.94C86.83 502.94 85.72 501.84 85.72 500.47C85.72 499.11 86.83 498 88.19 498C89.56 498 90.67 499.11 90.67 500.47Z" /><path fill-rule="evenodd" class="shp1" d="M115.39 500.47C115.39 501.84 114.28 502.94 112.92 502.94C111.55 502.94 110.44 501.84 110.44 500.47C110.44 499.11 111.55 498 112.92 498C114.28 498 115.39 499.11 115.39 500.47Z" /><path fill-rule="evenodd" class="shp1" d="M140.11 500.47C140.11 501.84 139 502.94 137.64 502.94C136.27 502.94 135.17 501.84 135.17 500.47C135.17 499.11 136.27 498 137.64 498C139 498 140.11 499.11 140.11 500.47Z" /><path fill-rule="evenodd" class="shp1" d="M164.83 500.47C164.83 501.84 163.73 502.94 162.36 502.94C161 502.94 159.89 501.84 159.89 500.47C159.89 499.11 161 498 162.36 498C163.73 498 164.83 499.11 164.83 500.47Z" /><path fill-rule="evenodd" class="shp1" d="M189.56 500.47C189.56 501.84 188.45 502.94 187.08 502.94C185.72 502.94 184.61 501.84 184.61 500.47C184.61 499.11 185.72 498 187.08 498C188.45 498 189.56 499.11 189.56 500.47Z" /><path fill-rule="evenodd" class="shp1" d="M214.28 500.47C214.28 501.84 213.17 502.94 211.81 502.94C210.44 502.94 209.33 501.84 209.33 500.47C209.33 499.11 210.44 498 211.81 498C213.17 498 214.28 499.11 214.28 500.47Z" /><path fill-rule="evenodd" class="shp1" d="M239 500.47C239 501.84 237.89 502.94 236.53 502.94C235.16 502.94 234.06 501.84 234.06 500.47C234.06 499.11 235.16 498 236.53 498C237.89 498 239 499.11 239 500.47Z" /><path fill-rule="evenodd" class="shp1" d="M65.94 525.19C65.94 526.56 64.84 527.67 63.47 527.67C62.11 527.67 61 526.56 61 525.19C61 523.83 62.11 522.72 63.47 522.72C64.84 522.72 65.94 523.83 65.94 525.19Z" /><path fill-rule="evenodd" class="shp1" d="M90.67 525.19C90.67 526.56 89.56 527.67 88.19 527.67C86.83 527.67 85.72 526.56 85.72 525.19C85.72 523.83 86.83 522.72 88.19 522.72C89.56 522.72 90.67 523.83 90.67 525.19Z" /><path fill-rule="evenodd" class="shp1" d="M115.39 525.19C115.39 526.56 114.28 527.67 112.92 527.67C111.55 527.67 110.44 526.56 110.44 525.19C110.44 523.83 111.55 522.72 112.92 522.72C114.28 522.72 115.39 523.83 115.39 525.19Z" /><path fill-rule="evenodd" class="shp1" d="M140.11 525.19C140.11 526.56 139 527.67 137.64 527.67C136.27 527.67 135.17 526.56 135.17 525.19C135.17 523.83 136.27 522.72 137.64 522.72C139 522.72 140.11 523.83 140.11 525.19Z" /><path fill-rule="evenodd" class="shp1" d="M164.83 525.19C164.83 526.56 163.73 527.67 162.36 527.67C161 527.67 159.89 526.56 159.89 525.19C159.89 523.83 161 522.72 162.36 522.72C163.73 522.72 164.83 523.83 164.83 525.19Z" /><path fill-rule="evenodd" class="shp1" d="M189.56 525.19C189.56 526.56 188.45 527.67 187.08 527.67C185.72 527.67 184.61 526.56 184.61 525.19C184.61 523.83 185.72 522.72 187.08 522.72C188.45 522.72 189.56 523.83 189.56 525.19Z" /><path fill-rule="evenodd" class="shp1" d="M214.28 525.19C214.28 526.56 213.17 527.67 211.81 527.67C210.44 527.67 209.33 526.56 209.33 525.19C209.33 523.83 210.44 522.72 211.81 522.72C213.17 522.72 214.28 523.83 214.28 525.19Z" /><path fill-rule="evenodd" class="shp1" d="M239 525.19C239 526.56 237.89 527.67 236.53 527.67C235.16 527.67 234.06 526.56 234.06 525.19C234.06 523.83 235.16 522.72 236.53 522.72C237.89 522.72 239 523.83 239 525.19Z" /><path fill-rule="evenodd" class="shp1" d="M65.94 549.92C65.94 551.28 64.84 552.39 63.47 552.39C62.11 552.39 61 551.28 61 549.92C61 548.55 62.11 547.44 63.47 547.44C64.84 547.44 65.94 548.55 65.94 549.92Z" /><path fill-rule="evenodd" class="shp1" d="M90.67 549.92C90.67 551.28 89.56 552.39 88.19 552.39C86.83 552.39 85.72 551.28 85.72 549.92C85.72 548.55 86.83 547.44 88.19 547.44C89.56 547.44 90.67 548.55 90.67 549.92Z" /><path fill-rule="evenodd" class="shp1" d="M115.39 549.92C115.39 551.28 114.28 552.39 112.92 552.39C111.55 552.39 110.44 551.28 110.44 549.92C110.44 548.55 111.55 547.44 112.92 547.44C114.28 547.44 115.39 548.55 115.39 549.92Z" /><path fill-rule="evenodd" class="shp1" d="M140.11 549.92C140.11 551.28 139 552.39 137.64 552.39C136.27 552.39 135.17 551.28 135.17 549.92C135.17 548.55 136.27 547.44 137.64 547.44C139 547.44 140.11 548.55 140.11 549.92Z" /><path fill-rule="evenodd" class="shp1" d="M164.83 549.92C164.83 551.28 163.73 552.39 162.36 552.39C161 552.39 159.89 551.28 159.89 549.92C159.89 548.55 161 547.44 162.36 547.44C163.73 547.44 164.83 548.55 164.83 549.92Z" /><path fill-rule="evenodd" class="shp1" d="M189.56 549.92C189.56 551.28 188.45 552.39 187.08 552.39C185.72 552.39 184.61 551.28 184.61 549.92C184.61 548.55 185.72 547.44 187.08 547.44C188.45 547.44 189.56 548.55 189.56 549.92Z" /><path fill-rule="evenodd" class="shp1" d="M214.28 549.92C214.28 551.28 213.17 552.39 211.81 552.39C210.44 552.39 209.33 551.28 209.33 549.92C209.33 548.55 210.44 547.44 211.81 547.44C213.17 547.44 214.28 548.55 214.28 549.92Z" /><path fill-rule="evenodd" class="shp1" d="M239 549.92C239 551.28 237.89 552.39 236.53 552.39C235.16 552.39 234.06 551.28 234.06 549.92C234.06 548.55 235.16 547.44 236.53 547.44C237.89 547.44 239 548.55 239 549.92Z" /><path fill-rule="evenodd" class="shp1" d="M65.94 574.64C65.94 576 64.84 577.11 63.47 577.11C62.11 577.11 61 576 61 574.64C61 573.27 62.11 572.17 63.47 572.17C64.84 572.17 65.94 573.27 65.94 574.64Z" /><path fill-rule="evenodd" class="shp1" d="M90.67 574.64C90.67 576 89.56 577.11 88.19 577.11C86.83 577.11 85.72 576 85.72 574.64C85.72 573.27 86.83 572.17 88.19 572.17C89.56 572.17 90.67 573.27 90.67 574.64Z" /><path fill-rule="evenodd" class="shp1" d="M115.39 574.64C115.39 576 114.28 577.11 112.92 577.11C111.55 577.11 110.44 576 110.44 574.64C110.44 573.27 111.55 572.17 112.92 572.17C114.28 572.17 115.39 573.27 115.39 574.64Z" /><path fill-rule="evenodd" class="shp1" d="M140.11 574.64C140.11 576 139 577.11 137.64 577.11C136.27 577.11 135.17 576 135.17 574.64C135.17 573.27 136.27 572.17 137.64 572.17C139 572.17 140.11 573.27 140.11 574.64Z" /><path fill-rule="evenodd" class="shp1" d="M164.83 574.64C164.83 576 163.73 577.11 162.36 577.11C161 577.11 159.89 576 159.89 574.64C159.89 573.27 161 572.17 162.36 572.17C163.73 572.17 164.83 573.27 164.83 574.64Z" /><path fill-rule="evenodd" class="shp1" d="M189.56 574.64C189.56 576 188.45 577.11 187.08 577.11C185.72 577.11 184.61 576 184.61 574.64C184.61 573.27 185.72 572.17 187.08 572.17C188.45 572.17 189.56 573.27 189.56 574.64Z" /><path fill-rule="evenodd" class="shp1" d="M214.28 574.64C214.28 576 213.17 577.11 211.81 577.11C210.44 577.11 209.33 576 209.33 574.64C209.33 573.27 210.44 572.17 211.81 572.17C213.17 572.17 214.28 573.27 214.28 574.64Z" /><path fill-rule="evenodd" class="shp1" d="M239 574.64C239 576 237.89 577.11 236.53 577.11C235.16 577.11 234.06 576 234.06 574.64C234.06 573.27 235.16 572.17 236.53 572.17C237.89 572.17 239 573.27 239 574.64Z" /><path fill-rule="evenodd" class="shp1" d="M65.94 599.36C65.94 600.73 64.84 601.83 63.47 601.83C62.11 601.83 61 600.73 61 599.36C61 598 62.11 596.89 63.47 596.89C64.84 596.89 65.94 598 65.94 599.36Z" /><path fill-rule="evenodd" class="shp1" d="M90.67 599.36C90.67 600.73 89.56 601.83 88.19 601.83C86.83 601.83 85.72 600.73 85.72 599.36C85.72 598 86.83 596.89 88.19 596.89C89.56 596.89 90.67 598 90.67 599.36Z" /><path fill-rule="evenodd" class="shp1" d="M115.39 599.36C115.39 600.73 114.28 601.83 112.92 601.83C111.55 601.83 110.44 600.73 110.44 599.36C110.44 598 111.55 596.89 112.92 596.89C114.28 596.89 115.39 598 115.39 599.36Z" /><path fill-rule="evenodd" class="shp1" d="M140.11 599.36C140.11 600.73 139 601.83 137.64 601.83C136.27 601.83 135.17 600.73 135.17 599.36C135.17 598 136.27 596.89 137.64 596.89C139 596.89 140.11 598 140.11 599.36Z" /><path fill-rule="evenodd" class="shp1" d="M164.83 599.36C164.83 600.73 163.73 601.83 162.36 601.83C161 601.83 159.89 600.73 159.89 599.36C159.89 598 161 596.89 162.36 596.89C163.73 596.89 164.83 598 164.83 599.36Z" /><path fill-rule="evenodd" class="shp1" d="M189.56 599.36C189.56 600.73 188.45 601.83 187.08 601.83C185.72 601.83 184.61 600.73 184.61 599.36C184.61 598 185.72 596.89 187.08 596.89C188.45 596.89 189.56 598 189.56 599.36Z" /><path fill-rule="evenodd" class="shp1" d="M214.28 599.36C214.28 600.73 213.17 601.83 211.81 601.83C210.44 601.83 209.33 600.73 209.33 599.36C209.33 598 210.44 596.89 211.81 596.89C213.17 596.89 214.28 598 214.28 599.36Z" /><path fill-rule="evenodd" class="shp1" d="M239 599.36C239 600.73 237.89 601.83 236.53 601.83C235.16 601.83 234.06 600.73 234.06 599.36C234.06 598 235.16 596.89 236.53 596.89C237.89 596.89 239 598 239 599.36Z" /><path fill-rule="evenodd" class="shp1" d="M65.94 624.08C65.94 625.45 64.84 626.56 63.47 626.56C62.11 626.56 61 625.45 61 624.08C61 622.72 62.11 621.61 63.47 621.61C64.84 621.61 65.94 622.72 65.94 624.08Z" /><path fill-rule="evenodd" class="shp1" d="M90.67 624.08C90.67 625.45 89.56 626.56 88.19 626.56C86.83 626.56 85.72 625.45 85.72 624.08C85.72 622.72 86.83 621.61 88.19 621.61C89.56 621.61 90.67 622.72 90.67 624.08Z" /><path fill-rule="evenodd" class="shp1" d="M115.39 624.08C115.39 625.45 114.28 626.56 112.92 626.56C111.55 626.56 110.44 625.45 110.44 624.08C110.44 622.72 111.55 621.61 112.92 621.61C114.28 621.61 115.39 622.72 115.39 624.08Z" /><path fill-rule="evenodd" class="shp1" d="M140.11 624.08C140.11 625.45 139 626.56 137.64 626.56C136.27 626.56 135.17 625.45 135.17 624.08C135.17 622.72 136.27 621.61 137.64 621.61C139 621.61 140.11 622.72 140.11 624.08Z" /><path fill-rule="evenodd" class="shp1" d="M164.83 624.08C164.83 625.45 163.73 626.56 162.36 626.56C161 626.56 159.89 625.45 159.89 624.08C159.89 622.72 161 621.61 162.36 621.61C163.73 621.61 164.83 622.72 164.83 624.08Z" /><path fill-rule="evenodd" class="shp1" d="M189.56 624.08C189.56 625.45 188.45 626.56 187.08 626.56C185.72 626.56 184.61 625.45 184.61 624.08C184.61 622.72 185.72 621.61 187.08 621.61C188.45 621.61 189.56 622.72 189.56 624.08Z" /><path fill-rule="evenodd" class="shp1" d="M214.28 624.08C214.28 625.45 213.17 626.56 211.81 626.56C210.44 626.56 209.33 625.45 209.33 624.08C209.33 622.72 210.44 621.61 211.81 621.61C213.17 621.61 214.28 622.72 214.28 624.08Z" /><path fill-rule="evenodd" class="shp1" d="M239 624.08C239 625.45 237.89 626.56 236.53 626.56C235.16 626.56 234.06 625.45 234.06 624.08C234.06 622.72 235.16 621.61 236.53 621.61C237.89 621.61 239 622.72 239 624.08Z" /><path fill-rule="evenodd" class="shp1" d="M65.94 648.81C65.94 650.17 64.84 651.28 63.47 651.28C62.11 651.28 61 650.17 61 648.81C61 647.44 62.11 646.33 63.47 646.33C64.84 646.33 65.94 647.44 65.94 648.81Z" /><path fill-rule="evenodd" class="shp1" d="M90.67 648.81C90.67 650.17 89.56 651.28 88.19 651.28C86.83 651.28 85.72 650.17 85.72 648.81C85.72 647.44 86.83 646.33 88.19 646.33C89.56 646.33 90.67 647.44 90.67 648.81Z" /><path fill-rule="evenodd" class="shp1" d="M115.39 648.81C115.39 650.17 114.28 651.28 112.92 651.28C111.55 651.28 110.44 650.17 110.44 648.81C110.44 647.44 111.55 646.33 112.92 646.33C114.28 646.33 115.39 647.44 115.39 648.81Z" /><path fill-rule="evenodd" class="shp1" d="M140.11 648.81C140.11 650.17 139 651.28 137.64 651.28C136.27 651.28 135.17 650.17 135.17 648.81C135.17 647.44 136.27 646.33 137.64 646.33C139 646.33 140.11 647.44 140.11 648.81Z" /><path fill-rule="evenodd" class="shp1" d="M164.83 648.81C164.83 650.17 163.73 651.28 162.36 651.28C161 651.28 159.89 650.17 159.89 648.81C159.89 647.44 161 646.33 162.36 646.33C163.73 646.33 164.83 647.44 164.83 648.81Z" /><path fill-rule="evenodd" class="shp1" d="M189.56 648.81C189.56 650.17 188.45 651.28 187.08 651.28C185.72 651.28 184.61 650.17 184.61 648.81C184.61 647.44 185.72 646.33 187.08 646.33C188.45 646.33 189.56 647.44 189.56 648.81Z" /><path fill-rule="evenodd" class="shp1" d="M214.28 648.81C214.28 650.17 213.17 651.28 211.81 651.28C210.44 651.28 209.33 650.17 209.33 648.81C209.33 647.44 210.44 646.33 211.81 646.33C213.17 646.33 214.28 647.44 214.28 648.81Z" /><path fill-rule="evenodd" class="shp1" d="M239 648.81C239 650.17 237.89 651.28 236.53 651.28C235.16 651.28 234.06 650.17 234.06 648.81C234.06 647.44 235.16 646.33 236.53 646.33C237.89 646.33 239 647.44 239 648.81Z" /><path fill-rule="evenodd" class="shp1" d="M65.94 673.53C65.94 674.89 64.84 676 63.47 676C62.11 676 61 674.89 61 673.53C61 672.16 62.11 671.06 63.47 671.06C64.84 671.06 65.94 672.16 65.94 673.53Z" /><path fill-rule="evenodd" class="shp1" d="M90.67 673.53C90.67 674.89 89.56 676 88.19 676C86.83 676 85.72 674.89 85.72 673.53C85.72 672.16 86.83 671.06 88.19 671.06C89.56 671.06 90.67 672.16 90.67 673.53Z" /><path fill-rule="evenodd" class="shp1" d="M115.39 673.53C115.39 674.89 114.28 676 112.92 676C111.55 676 110.44 674.89 110.44 673.53C110.44 672.16 111.55 671.06 112.92 671.06C114.28 671.06 115.39 672.16 115.39 673.53Z" /><path fill-rule="evenodd" class="shp1" d="M140.11 673.53C140.11 674.89 139 676 137.64 676C136.27 676 135.17 674.89 135.17 673.53C135.17 672.16 136.27 671.06 137.64 671.06C139 671.06 140.11 672.16 140.11 673.53Z" /><path fill-rule="evenodd" class="shp1" d="M164.83 673.53C164.83 674.89 163.73 676 162.36 676C161 676 159.89 674.89 159.89 673.53C159.89 672.16 161 671.06 162.36 671.06C163.73 671.06 164.83 672.16 164.83 673.53Z" /><path fill-rule="evenodd" class="shp1" d="M189.56 673.53C189.56 674.89 188.45 676 187.08 676C185.72 676 184.61 674.89 184.61 673.53C184.61 672.16 185.72 671.06 187.08 671.06C188.45 671.06 189.56 672.16 189.56 673.53Z" /><path fill-rule="evenodd" class="shp1" d="M214.28 673.53C214.28 674.89 213.17 676 211.81 676C210.44 676 209.33 674.89 209.33 673.53C209.33 672.16 210.44 671.06 211.81 671.06C213.17 671.06 214.28 672.16 214.28 673.53Z" /><path fill-rule="evenodd" class="shp1" d="M239 673.53C239 674.89 237.89 676 236.53 676C235.16 676 234.06 674.89 234.06 673.53C234.06 672.16 235.16 671.06 236.53 671.06C237.89 671.06 239 672.16 239 673.53Z" /></g></g><g ><g ><path fill-rule="evenodd" class="shp2" d="M1020.94 1258.47C1020.94 1259.84 1019.84 1260.94 1018.47 1260.94C1017.11 1260.94 1016 1259.84 1016 1258.47C1016 1257.11 1017.11 1256 1018.47 1256C1019.84 1256 1020.94 1257.11 1020.94 1258.47Z" /><path fill-rule="evenodd" class="shp2" d="M1045.67 1258.47C1045.67 1259.84 1044.56 1260.94 1043.19 1260.94C1041.83 1260.94 1040.72 1259.84 1040.72 1258.47C1040.72 1257.11 1041.83 1256 1043.19 1256C1044.56 1256 1045.67 1257.11 1045.67 1258.47Z" /><path fill-rule="evenodd" class="shp2" d="M1070.39 1258.47C1070.39 1259.84 1069.28 1260.94 1067.92 1260.94C1066.55 1260.94 1065.44 1259.84 1065.44 1258.47C1065.44 1257.11 1066.55 1256 1067.92 1256C1069.28 1256 1070.39 1257.11 1070.39 1258.47Z" /><path fill-rule="evenodd" class="shp2" d="M1095.11 1258.47C1095.11 1259.84 1094 1260.94 1092.64 1260.94C1091.27 1260.94 1090.17 1259.84 1090.17 1258.47C1090.17 1257.11 1091.27 1256 1092.64 1256C1094 1256 1095.11 1257.11 1095.11 1258.47Z" /><path fill-rule="evenodd" class="shp2" d="M1119.83 1258.47C1119.83 1259.84 1118.73 1260.94 1117.36 1260.94C1116 1260.94 1114.89 1259.84 1114.89 1258.47C1114.89 1257.11 1116 1256 1117.36 1256C1118.73 1256 1119.83 1257.11 1119.83 1258.47Z" /><path fill-rule="evenodd" class="shp2" d="M1144.56 1258.47C1144.56 1259.84 1143.45 1260.94 1142.08 1260.94C1140.72 1260.94 1139.61 1259.84 1139.61 1258.47C1139.61 1257.11 1140.72 1256 1142.08 1256C1143.45 1256 1144.56 1257.11 1144.56 1258.47Z" /><path fill-rule="evenodd" class="shp2" d="M1169.28 1258.47C1169.28 1259.84 1168.17 1260.94 1166.81 1260.94C1165.44 1260.94 1164.33 1259.84 1164.33 1258.47C1164.33 1257.11 1165.44 1256 1166.81 1256C1168.17 1256 1169.28 1257.11 1169.28 1258.47Z" /><path fill-rule="evenodd" class="shp2" d="M1194 1258.47C1194 1259.84 1192.89 1260.94 1191.53 1260.94C1190.16 1260.94 1189.06 1259.84 1189.06 1258.47C1189.06 1257.11 1190.16 1256 1191.53 1256C1192.89 1256 1194 1257.11 1194 1258.47Z" /><path fill-rule="evenodd" class="shp2" d="M1020.94 1283.19C1020.94 1284.56 1019.84 1285.67 1018.47 1285.67C1017.11 1285.67 1016 1284.56 1016 1283.19C1016 1281.83 1017.11 1280.72 1018.47 1280.72C1019.84 1280.72 1020.94 1281.83 1020.94 1283.19Z" /><path fill-rule="evenodd" class="shp2" d="M1045.67 1283.19C1045.67 1284.56 1044.56 1285.67 1043.19 1285.67C1041.83 1285.67 1040.72 1284.56 1040.72 1283.19C1040.72 1281.83 1041.83 1280.72 1043.19 1280.72C1044.56 1280.72 1045.67 1281.83 1045.67 1283.19Z" /><path fill-rule="evenodd" class="shp2" d="M1070.39 1283.19C1070.39 1284.56 1069.28 1285.67 1067.92 1285.67C1066.55 1285.67 1065.44 1284.56 1065.44 1283.19C1065.44 1281.83 1066.55 1280.72 1067.92 1280.72C1069.28 1280.72 1070.39 1281.83 1070.39 1283.19Z" /><path fill-rule="evenodd" class="shp2" d="M1095.11 1283.19C1095.11 1284.56 1094 1285.67 1092.64 1285.67C1091.27 1285.67 1090.17 1284.56 1090.17 1283.19C1090.17 1281.83 1091.27 1280.72 1092.64 1280.72C1094 1280.72 1095.11 1281.83 1095.11 1283.19Z" /><path fill-rule="evenodd" class="shp2" d="M1119.83 1283.19C1119.83 1284.56 1118.73 1285.67 1117.36 1285.67C1116 1285.67 1114.89 1284.56 1114.89 1283.19C1114.89 1281.83 1116 1280.72 1117.36 1280.72C1118.73 1280.72 1119.83 1281.83 1119.83 1283.19Z" /><path fill-rule="evenodd" class="shp2" d="M1144.56 1283.19C1144.56 1284.56 1143.45 1285.67 1142.08 1285.67C1140.72 1285.67 1139.61 1284.56 1139.61 1283.19C1139.61 1281.83 1140.72 1280.72 1142.08 1280.72C1143.45 1280.72 1144.56 1281.83 1144.56 1283.19Z" /><path fill-rule="evenodd" class="shp2" d="M1169.28 1283.19C1169.28 1284.56 1168.17 1285.67 1166.81 1285.67C1165.44 1285.67 1164.33 1284.56 1164.33 1283.19C1164.33 1281.83 1165.44 1280.72 1166.81 1280.72C1168.17 1280.72 1169.28 1281.83 1169.28 1283.19Z" /><path fill-rule="evenodd" class="shp2" d="M1194 1283.19C1194 1284.56 1192.89 1285.67 1191.53 1285.67C1190.16 1285.67 1189.06 1284.56 1189.06 1283.19C1189.06 1281.83 1190.16 1280.72 1191.53 1280.72C1192.89 1280.72 1194 1281.83 1194 1283.19Z" /><path fill-rule="evenodd" class="shp2" d="M1020.94 1307.92C1020.94 1309.28 1019.84 1310.39 1018.47 1310.39C1017.11 1310.39 1016 1309.28 1016 1307.92C1016 1306.55 1017.11 1305.44 1018.47 1305.44C1019.84 1305.44 1020.94 1306.55 1020.94 1307.92Z" /><path fill-rule="evenodd" class="shp2" d="M1045.67 1307.92C1045.67 1309.28 1044.56 1310.39 1043.19 1310.39C1041.83 1310.39 1040.72 1309.28 1040.72 1307.92C1040.72 1306.55 1041.83 1305.44 1043.19 1305.44C1044.56 1305.44 1045.67 1306.55 1045.67 1307.92Z" /><path fill-rule="evenodd" class="shp2" d="M1070.39 1307.92C1070.39 1309.28 1069.28 1310.39 1067.92 1310.39C1066.55 1310.39 1065.44 1309.28 1065.44 1307.92C1065.44 1306.55 1066.55 1305.44 1067.92 1305.44C1069.28 1305.44 1070.39 1306.55 1070.39 1307.92Z" /><path fill-rule="evenodd" class="shp2" d="M1095.11 1307.92C1095.11 1309.28 1094 1310.39 1092.64 1310.39C1091.27 1310.39 1090.17 1309.28 1090.17 1307.92C1090.17 1306.55 1091.27 1305.44 1092.64 1305.44C1094 1305.44 1095.11 1306.55 1095.11 1307.92Z" /><path fill-rule="evenodd" class="shp2" d="M1119.83 1307.92C1119.83 1309.28 1118.73 1310.39 1117.36 1310.39C1116 1310.39 1114.89 1309.28 1114.89 1307.92C1114.89 1306.55 1116 1305.44 1117.36 1305.44C1118.73 1305.44 1119.83 1306.55 1119.83 1307.92Z" /><path fill-rule="evenodd" class="shp2" d="M1144.56 1307.92C1144.56 1309.28 1143.45 1310.39 1142.08 1310.39C1140.72 1310.39 1139.61 1309.28 1139.61 1307.92C1139.61 1306.55 1140.72 1305.44 1142.08 1305.44C1143.45 1305.44 1144.56 1306.55 1144.56 1307.92Z" /><path fill-rule="evenodd" class="shp2" d="M1169.28 1307.92C1169.28 1309.28 1168.17 1310.39 1166.81 1310.39C1165.44 1310.39 1164.33 1309.28 1164.33 1307.92C1164.33 1306.55 1165.44 1305.44 1166.81 1305.44C1168.17 1305.44 1169.28 1306.55 1169.28 1307.92Z" /><path fill-rule="evenodd" class="shp2" d="M1194 1307.92C1194 1309.28 1192.89 1310.39 1191.53 1310.39C1190.16 1310.39 1189.06 1309.28 1189.06 1307.92C1189.06 1306.55 1190.16 1305.44 1191.53 1305.44C1192.89 1305.44 1194 1306.55 1194 1307.92Z" /><path fill-rule="evenodd" class="shp2" d="M1020.94 1332.64C1020.94 1334 1019.84 1335.11 1018.47 1335.11C1017.11 1335.11 1016 1334 1016 1332.64C1016 1331.27 1017.11 1330.17 1018.47 1330.17C1019.84 1330.17 1020.94 1331.27 1020.94 1332.64Z" /><path fill-rule="evenodd" class="shp2" d="M1045.67 1332.64C1045.67 1334 1044.56 1335.11 1043.19 1335.11C1041.83 1335.11 1040.72 1334 1040.72 1332.64C1040.72 1331.27 1041.83 1330.17 1043.19 1330.17C1044.56 1330.17 1045.67 1331.27 1045.67 1332.64Z" /><path fill-rule="evenodd" class="shp2" d="M1070.39 1332.64C1070.39 1334 1069.28 1335.11 1067.92 1335.11C1066.55 1335.11 1065.44 1334 1065.44 1332.64C1065.44 1331.27 1066.55 1330.17 1067.92 1330.17C1069.28 1330.17 1070.39 1331.27 1070.39 1332.64Z" /><path fill-rule="evenodd" class="shp2" d="M1095.11 1332.64C1095.11 1334 1094 1335.11 1092.64 1335.11C1091.27 1335.11 1090.17 1334 1090.17 1332.64C1090.17 1331.27 1091.27 1330.17 1092.64 1330.17C1094 1330.17 1095.11 1331.27 1095.11 1332.64Z" /><path fill-rule="evenodd" class="shp2" d="M1119.83 1332.64C1119.83 1334 1118.73 1335.11 1117.36 1335.11C1116 1335.11 1114.89 1334 1114.89 1332.64C1114.89 1331.27 1116 1330.17 1117.36 1330.17C1118.73 1330.17 1119.83 1331.27 1119.83 1332.64Z" /><path fill-rule="evenodd" class="shp2" d="M1144.56 1332.64C1144.56 1334 1143.45 1335.11 1142.08 1335.11C1140.72 1335.11 1139.61 1334 1139.61 1332.64C1139.61 1331.27 1140.72 1330.17 1142.08 1330.17C1143.45 1330.17 1144.56 1331.27 1144.56 1332.64Z" /><path fill-rule="evenodd" class="shp2" d="M1169.28 1332.64C1169.28 1334 1168.17 1335.11 1166.81 1335.11C1165.44 1335.11 1164.33 1334 1164.33 1332.64C1164.33 1331.27 1165.44 1330.17 1166.81 1330.17C1168.17 1330.17 1169.28 1331.27 1169.28 1332.64Z" /><path fill-rule="evenodd" class="shp2" d="M1194 1332.64C1194 1334 1192.89 1335.11 1191.53 1335.11C1190.16 1335.11 1189.06 1334 1189.06 1332.64C1189.06 1331.27 1190.16 1330.17 1191.53 1330.17C1192.89 1330.17 1194 1331.27 1194 1332.64Z" /><path fill-rule="evenodd" class="shp2" d="M1020.94 1357.36C1020.94 1358.73 1019.84 1359.83 1018.47 1359.83C1017.11 1359.83 1016 1358.73 1016 1357.36C1016 1356 1017.11 1354.89 1018.47 1354.89C1019.84 1354.89 1020.94 1356 1020.94 1357.36Z" /><path fill-rule="evenodd" class="shp2" d="M1045.67 1357.36C1045.67 1358.73 1044.56 1359.83 1043.19 1359.83C1041.83 1359.83 1040.72 1358.73 1040.72 1357.36C1040.72 1356 1041.83 1354.89 1043.19 1354.89C1044.56 1354.89 1045.67 1356 1045.67 1357.36Z" /><path fill-rule="evenodd" class="shp2" d="M1070.39 1357.36C1070.39 1358.73 1069.28 1359.83 1067.92 1359.83C1066.55 1359.83 1065.44 1358.73 1065.44 1357.36C1065.44 1356 1066.55 1354.89 1067.92 1354.89C1069.28 1354.89 1070.39 1356 1070.39 1357.36Z" /><path fill-rule="evenodd" class="shp2" d="M1095.11 1357.36C1095.11 1358.73 1094 1359.83 1092.64 1359.83C1091.27 1359.83 1090.17 1358.73 1090.17 1357.36C1090.17 1356 1091.27 1354.89 1092.64 1354.89C1094 1354.89 1095.11 1356 1095.11 1357.36Z" /><path fill-rule="evenodd" class="shp2" d="M1119.83 1357.36C1119.83 1358.73 1118.73 1359.83 1117.36 1359.83C1116 1359.83 1114.89 1358.73 1114.89 1357.36C1114.89 1356 1116 1354.89 1117.36 1354.89C1118.73 1354.89 1119.83 1356 1119.83 1357.36Z" /><path fill-rule="evenodd" class="shp2" d="M1144.56 1357.36C1144.56 1358.73 1143.45 1359.83 1142.08 1359.83C1140.72 1359.83 1139.61 1358.73 1139.61 1357.36C1139.61 1356 1140.72 1354.89 1142.08 1354.89C1143.45 1354.89 1144.56 1356 1144.56 1357.36Z" /><path fill-rule="evenodd" class="shp2" d="M1169.28 1357.36C1169.28 1358.73 1168.17 1359.83 1166.81 1359.83C1165.44 1359.83 1164.33 1358.73 1164.33 1357.36C1164.33 1356 1165.44 1354.89 1166.81 1354.89C1168.17 1354.89 1169.28 1356 1169.28 1357.36Z" /><path fill-rule="evenodd" class="shp2" d="M1194 1357.36C1194 1358.73 1192.89 1359.83 1191.53 1359.83C1190.16 1359.83 1189.06 1358.73 1189.06 1357.36C1189.06 1356 1190.16 1354.89 1191.53 1354.89C1192.89 1354.89 1194 1356 1194 1357.36Z" /><path fill-rule="evenodd" class="shp2" d="M1020.94 1382.08C1020.94 1383.45 1019.84 1384.56 1018.47 1384.56C1017.11 1384.56 1016 1383.45 1016 1382.08C1016 1380.72 1017.11 1379.61 1018.47 1379.61C1019.84 1379.61 1020.94 1380.72 1020.94 1382.08Z" /><path fill-rule="evenodd" class="shp2" d="M1045.67 1382.08C1045.67 1383.45 1044.56 1384.56 1043.19 1384.56C1041.83 1384.56 1040.72 1383.45 1040.72 1382.08C1040.72 1380.72 1041.83 1379.61 1043.19 1379.61C1044.56 1379.61 1045.67 1380.72 1045.67 1382.08Z" /><path fill-rule="evenodd" class="shp2" d="M1070.39 1382.08C1070.39 1383.45 1069.28 1384.56 1067.92 1384.56C1066.55 1384.56 1065.44 1383.45 1065.44 1382.08C1065.44 1380.72 1066.55 1379.61 1067.92 1379.61C1069.28 1379.61 1070.39 1380.72 1070.39 1382.08Z" /><path fill-rule="evenodd" class="shp2" d="M1095.11 1382.08C1095.11 1383.45 1094 1384.56 1092.64 1384.56C1091.27 1384.56 1090.17 1383.45 1090.17 1382.08C1090.17 1380.72 1091.27 1379.61 1092.64 1379.61C1094 1379.61 1095.11 1380.72 1095.11 1382.08Z" /><path fill-rule="evenodd" class="shp2" d="M1119.83 1382.08C1119.83 1383.45 1118.73 1384.56 1117.36 1384.56C1116 1384.56 1114.89 1383.45 1114.89 1382.08C1114.89 1380.72 1116 1379.61 1117.36 1379.61C1118.73 1379.61 1119.83 1380.72 1119.83 1382.08Z" /><path fill-rule="evenodd" class="shp2" d="M1144.56 1382.08C1144.56 1383.45 1143.45 1384.56 1142.08 1384.56C1140.72 1384.56 1139.61 1383.45 1139.61 1382.08C1139.61 1380.72 1140.72 1379.61 1142.08 1379.61C1143.45 1379.61 1144.56 1380.72 1144.56 1382.08Z" /><path fill-rule="evenodd" class="shp2" d="M1169.28 1382.08C1169.28 1383.45 1168.17 1384.56 1166.81 1384.56C1165.44 1384.56 1164.33 1383.45 1164.33 1382.08C1164.33 1380.72 1165.44 1379.61 1166.81 1379.61C1168.17 1379.61 1169.28 1380.72 1169.28 1382.08Z" /><path fill-rule="evenodd" class="shp2" d="M1194 1382.08C1194 1383.45 1192.89 1384.56 1191.53 1384.56C1190.16 1384.56 1189.06 1383.45 1189.06 1382.08C1189.06 1380.72 1190.16 1379.61 1191.53 1379.61C1192.89 1379.61 1194 1380.72 1194 1382.08Z" /><path fill-rule="evenodd" class="shp2" d="M1020.94 1406.81C1020.94 1408.17 1019.84 1409.28 1018.47 1409.28C1017.11 1409.28 1016 1408.17 1016 1406.81C1016 1405.44 1017.11 1404.33 1018.47 1404.33C1019.84 1404.33 1020.94 1405.44 1020.94 1406.81Z" /><path fill-rule="evenodd" class="shp2" d="M1045.67 1406.81C1045.67 1408.17 1044.56 1409.28 1043.19 1409.28C1041.83 1409.28 1040.72 1408.17 1040.72 1406.81C1040.72 1405.44 1041.83 1404.33 1043.19 1404.33C1044.56 1404.33 1045.67 1405.44 1045.67 1406.81Z" /><path fill-rule="evenodd" class="shp2" d="M1070.39 1406.81C1070.39 1408.17 1069.28 1409.28 1067.92 1409.28C1066.55 1409.28 1065.44 1408.17 1065.44 1406.81C1065.44 1405.44 1066.55 1404.33 1067.92 1404.33C1069.28 1404.33 1070.39 1405.44 1070.39 1406.81Z" /><path fill-rule="evenodd" class="shp2" d="M1095.11 1406.81C1095.11 1408.17 1094 1409.28 1092.64 1409.28C1091.27 1409.28 1090.17 1408.17 1090.17 1406.81C1090.17 1405.44 1091.27 1404.33 1092.64 1404.33C1094 1404.33 1095.11 1405.44 1095.11 1406.81Z" /><path fill-rule="evenodd" class="shp2" d="M1119.83 1406.81C1119.83 1408.17 1118.73 1409.28 1117.36 1409.28C1116 1409.28 1114.89 1408.17 1114.89 1406.81C1114.89 1405.44 1116 1404.33 1117.36 1404.33C1118.73 1404.33 1119.83 1405.44 1119.83 1406.81Z" /><path fill-rule="evenodd" class="shp2" d="M1144.56 1406.81C1144.56 1408.17 1143.45 1409.28 1142.08 1409.28C1140.72 1409.28 1139.61 1408.17 1139.61 1406.81C1139.61 1405.44 1140.72 1404.33 1142.08 1404.33C1143.45 1404.33 1144.56 1405.44 1144.56 1406.81Z" /><path fill-rule="evenodd" class="shp2" d="M1169.28 1406.81C1169.28 1408.17 1168.17 1409.28 1166.81 1409.28C1165.44 1409.28 1164.33 1408.17 1164.33 1406.81C1164.33 1405.44 1165.44 1404.33 1166.81 1404.33C1168.17 1404.33 1169.28 1405.44 1169.28 1406.81Z" /><path fill-rule="evenodd" class="shp2" d="M1194 1406.81C1194 1408.17 1192.89 1409.28 1191.53 1409.28C1190.16 1409.28 1189.06 1408.17 1189.06 1406.81C1189.06 1405.44 1190.16 1404.33 1191.53 1404.33C1192.89 1404.33 1194 1405.44 1194 1406.81Z" /><path fill-rule="evenodd" class="shp2" d="M1020.94 1431.53C1020.94 1432.89 1019.84 1434 1018.47 1434C1017.11 1434 1016 1432.89 1016 1431.53C1016 1430.16 1017.11 1429.06 1018.47 1429.06C1019.84 1429.06 1020.94 1430.16 1020.94 1431.53Z" /><path fill-rule="evenodd" class="shp2" d="M1045.67 1431.53C1045.67 1432.89 1044.56 1434 1043.19 1434C1041.83 1434 1040.72 1432.89 1040.72 1431.53C1040.72 1430.16 1041.83 1429.06 1043.19 1429.06C1044.56 1429.06 1045.67 1430.16 1045.67 1431.53Z" /><path fill-rule="evenodd" class="shp2" d="M1070.39 1431.53C1070.39 1432.89 1069.28 1434 1067.92 1434C1066.55 1434 1065.44 1432.89 1065.44 1431.53C1065.44 1430.16 1066.55 1429.06 1067.92 1429.06C1069.28 1429.06 1070.39 1430.16 1070.39 1431.53Z" /><path fill-rule="evenodd" class="shp2" d="M1095.11 1431.53C1095.11 1432.89 1094 1434 1092.64 1434C1091.27 1434 1090.17 1432.89 1090.17 1431.53C1090.17 1430.16 1091.27 1429.06 1092.64 1429.06C1094 1429.06 1095.11 1430.16 1095.11 1431.53Z" /><path fill-rule="evenodd" class="shp2" d="M1119.83 1431.53C1119.83 1432.89 1118.73 1434 1117.36 1434C1116 1434 1114.89 1432.89 1114.89 1431.53C1114.89 1430.16 1116 1429.06 1117.36 1429.06C1118.73 1429.06 1119.83 1430.16 1119.83 1431.53Z" /><path fill-rule="evenodd" class="shp2" d="M1144.56 1431.53C1144.56 1432.89 1143.45 1434 1142.08 1434C1140.72 1434 1139.61 1432.89 1139.61 1431.53C1139.61 1430.16 1140.72 1429.06 1142.08 1429.06C1143.45 1429.06 1144.56 1430.16 1144.56 1431.53Z" /><path fill-rule="evenodd" class="shp2" d="M1169.28 1431.53C1169.28 1432.89 1168.17 1434 1166.81 1434C1165.44 1434 1164.33 1432.89 1164.33 1431.53C1164.33 1430.16 1165.44 1429.06 1166.81 1429.06C1168.17 1429.06 1169.28 1430.16 1169.28 1431.53Z" /><path fill-rule="evenodd" class="shp2" d="M1194 1431.53C1194 1432.89 1192.89 1434 1191.53 1434C1190.16 1434 1189.06 1432.89 1189.06 1431.53C1189.06 1430.16 1190.16 1429.06 1191.53 1429.06C1192.89 1429.06 1194 1430.16 1194 1431.53Z" /></g></g><path fill-rule="evenodd" class="shp3" d="M498 652C504.63 652 510 646.63 510 640C510 633.37 504.63 628 498 628C491.37 628 486 633.37 486 640C486 646.63 491.37 652 498 652Z" /><path fill-rule="evenodd" class="shp3" d="M110 276.86L124.14 291L110 305.14L95.86 291L110 276.86Z" /><path fill-rule="evenodd" class="shp2" d="M69 184.14C73.41 184.14 77 187.73 77 192.14L81 192.14C81 185.53 75.62 180.14 69 180.14C62.38 180.14 57 185.53 57 192.14L61 192.14C61 187.73 64.59 184.14 69 184.14Z" /><path fill-rule="evenodd" class="shp2" d="M190 87C183.38 87 178 92.38 178 99L182 99C182 94.59 185.59 91 190 91L190 87Z" /></g></g></g></g></svg>
