<svg xmlns="http://www.w3.org/2000/svg" viewBox="0 0 1920 1292" width="1920" height="1292"><style>tspan { white-space:pre }.shp0 { fill: #3138d1 } .shp1 { fill: #ffffff } .shp2 { fill: none;stroke: #ffffff;stroke-width: 4 } </style><g ><path fill-rule="evenodd" class="shp0" d="M1142.73 133.41L1980.81 -704.67C1982.54 -706.41 1984.32 -708.1 1986.14 -709.75C1987.96 -711.4 1989.82 -713 1991.72 -714.56C1993.61 -716.12 1995.55 -717.63 1997.52 -719.09C1999.49 -720.55 2001.5 -721.97 2003.54 -723.33C2005.58 -724.69 2007.66 -726.01 2009.76 -727.27C2011.87 -728.53 2014 -729.74 2016.17 -730.9C2018.34 -732.06 2020.53 -733.16 2022.75 -734.21C2024.97 -735.26 2027.21 -736.26 2029.48 -737.19C2031.75 -738.13 2034.04 -739.02 2036.35 -739.84C2038.66 -740.67 2040.99 -741.44 2043.34 -742.15C2045.69 -742.87 2048.06 -743.52 2050.44 -744.12C2052.82 -744.72 2055.21 -745.25 2057.62 -745.73C2060.03 -746.21 2062.45 -746.63 2064.88 -746.99C2067.31 -747.35 2069.74 -747.65 2072.19 -747.89C2074.63 -748.13 2077.08 -748.31 2079.53 -748.43C2081.98 -748.55 2084.44 -748.61 2086.89 -748.61C2089.35 -748.61 2091.8 -748.55 2094.25 -748.43C2096.71 -748.31 2099.15 -748.13 2101.6 -747.89C2104.04 -747.65 2106.48 -747.35 2108.91 -746.99C2111.33 -746.63 2113.75 -746.21 2116.16 -745.73C2118.57 -745.25 2120.96 -744.72 2123.35 -744.12C2125.73 -743.52 2128.09 -742.87 2130.44 -742.15C2132.79 -741.44 2135.12 -740.67 2137.43 -739.84C2139.75 -739.02 2142.04 -738.13 2144.3 -737.19C2146.57 -736.25 2148.82 -735.26 2151.04 -734.21C2153.26 -733.16 2155.45 -732.06 2157.61 -730.9C2159.78 -729.74 2161.92 -728.53 2164.02 -727.27C2166.13 -726.01 2168.2 -724.69 2170.24 -723.33C2172.28 -721.97 2174.29 -720.55 2176.26 -719.09C2178.24 -717.63 2180.17 -716.12 2182.07 -714.56C2183.97 -713 2185.82 -711.4 2187.64 -709.75C2189.46 -708.1 2191.24 -706.41 2192.98 -704.67L3031.06 133.41C3032.79 135.14 3034.49 136.92 3036.14 138.74C3037.78 140.56 3039.39 142.42 3040.95 144.32C3042.5 146.22 3044.01 148.15 3045.48 150.12C3046.94 152.09 3048.35 154.1 3049.72 156.14C3051.08 158.18 3052.39 160.26 3053.66 162.36C3054.92 164.47 3056.13 166.61 3057.28 168.77C3058.44 170.94 3059.55 173.13 3060.6 175.35C3061.65 177.57 3062.64 179.81 3063.58 182.08C3064.52 184.35 3065.4 186.64 3066.23 188.95C3067.06 191.26 3067.83 193.59 3068.54 195.94C3069.25 198.29 3069.91 200.66 3070.5 203.04C3071.1 205.42 3071.64 207.82 3072.12 210.22C3072.6 212.63 3073.02 215.05 3073.38 217.48C3073.74 219.91 3074.04 222.34 3074.28 224.79C3074.52 227.23 3074.7 229.68 3074.82 232.13C3074.94 234.58 3075 237.04 3075 239.49C3075 241.95 3074.94 244.4 3074.82 246.85C3074.7 249.31 3074.52 251.75 3074.28 254.2C3074.04 256.64 3073.74 259.08 3073.38 261.51C3073.02 263.94 3072.6 266.35 3072.12 268.76C3071.64 271.17 3071.1 273.57 3070.5 275.95C3069.91 278.33 3069.25 280.69 3068.54 283.04C3067.83 285.39 3067.06 287.72 3066.23 290.04C3065.4 292.35 3064.52 294.64 3063.58 296.91C3062.64 299.17 3061.65 301.42 3060.6 303.64C3059.55 305.86 3058.44 308.05 3057.28 310.22C3056.13 312.38 3054.92 314.52 3053.66 316.62C3052.39 318.73 3051.08 320.8 3049.72 322.84C3048.35 324.88 3046.94 326.89 3045.48 328.86C3044.01 330.84 3042.5 332.77 3040.95 334.67C3039.39 336.57 3037.78 338.42 3036.14 340.24C3034.49 342.06 3032.79 343.84 3031.06 345.58L2192.98 1183.66C2191.24 1185.4 2189.46 1187.09 2187.64 1188.74C2185.82 1190.39 2183.97 1191.99 2182.07 1193.55C2180.17 1195.1 2178.24 1196.61 2176.26 1198.08C2174.29 1199.54 2172.28 1200.95 2170.24 1202.32C2168.2 1203.68 2166.13 1204.99 2164.02 1206.26C2161.92 1207.52 2159.78 1208.73 2157.61 1209.89C2155.45 1211.04 2153.26 1212.15 2151.04 1213.2C2148.82 1214.25 2146.57 1215.24 2144.3 1216.18C2142.04 1217.12 2139.75 1218 2137.43 1218.83C2135.12 1219.66 2132.79 1220.43 2130.44 1221.14C2128.09 1221.85 2125.73 1222.51 2123.35 1223.1C2120.96 1223.7 2118.57 1224.24 2116.16 1224.72C2113.75 1225.2 2111.33 1225.62 2108.91 1225.98C2106.48 1226.34 2104.04 1226.64 2101.6 1226.88C2099.15 1227.12 2096.71 1227.3 2094.25 1227.42C2091.8 1227.54 2089.35 1227.6 2086.89 1227.6C2084.44 1227.6 2081.98 1227.54 2079.53 1227.42C2077.08 1227.3 2074.63 1227.12 2072.19 1226.88C2069.74 1226.64 2067.31 1226.34 2064.88 1225.98C2062.45 1225.62 2060.03 1225.2 2057.62 1224.72C2055.21 1224.24 2052.82 1223.7 2050.44 1223.1C2048.06 1222.51 2045.69 1221.85 2043.34 1221.14C2040.99 1220.43 2038.66 1219.66 2036.35 1218.83C2034.04 1218 2031.75 1217.12 2029.48 1216.18C2027.21 1215.24 2024.97 1214.25 2022.75 1213.2C2020.53 1212.15 2018.34 1211.04 2016.17 1209.89C2014 1208.73 2011.87 1207.52 2009.76 1206.26C2007.66 1204.99 2005.58 1203.68 2003.54 1202.32C2001.5 1200.95 1999.49 1199.54 1997.52 1198.08C1995.55 1196.61 1993.61 1195.1 1991.72 1193.55C1989.82 1191.99 1987.96 1190.39 1986.14 1188.74C1984.32 1187.09 1982.54 1185.4 1980.81 1183.66L1142.73 345.58C1140.99 343.84 1139.3 342.06 1137.65 340.24C1136 338.43 1134.4 336.57 1132.84 334.67C1131.28 332.77 1129.77 330.84 1128.31 328.86C1126.85 326.89 1125.43 324.88 1124.07 322.84C1122.7 320.8 1121.39 318.73 1120.13 316.62C1118.87 314.52 1117.66 312.38 1116.5 310.22C1115.34 308.05 1114.24 305.86 1113.19 303.64C1112.14 301.42 1111.14 299.17 1110.2 296.91C1109.26 294.64 1108.38 292.35 1107.55 290.04C1106.73 287.72 1105.96 285.39 1105.24 283.04C1104.53 280.69 1103.88 278.33 1103.28 275.95C1102.68 273.56 1102.15 271.17 1101.67 268.76C1101.19 266.35 1100.77 263.94 1100.41 261.51C1100.05 259.08 1099.75 256.64 1099.51 254.2C1099.27 251.75 1099.09 249.31 1098.97 246.85C1098.84 244.4 1098.78 241.95 1098.78 239.49C1098.78 237.04 1098.84 234.58 1098.97 232.13C1099.09 229.68 1099.27 227.23 1099.51 224.79C1099.75 222.34 1100.05 219.91 1100.41 217.48C1100.77 215.05 1101.19 212.63 1101.67 210.22C1102.15 207.82 1102.68 205.42 1103.28 203.04C1103.88 200.66 1104.53 198.29 1105.24 195.94C1105.96 193.59 1106.73 191.26 1107.55 188.95C1108.38 186.64 1109.26 184.35 1110.2 182.08C1111.14 179.81 1112.14 177.57 1113.19 175.35C1114.24 173.13 1115.34 170.94 1116.5 168.77C1117.66 166.61 1118.87 164.47 1120.13 162.36C1121.39 160.26 1122.7 158.18 1124.07 156.14C1125.43 154.1 1126.85 152.09 1128.31 150.12C1129.77 148.15 1131.28 146.22 1132.84 144.32C1134.4 142.42 1136 140.56 1137.65 138.74C1139.3 136.92 1140.99 135.14 1142.73 133.41Z" /><g ><g ><path fill-rule="evenodd" class="shp1" d="M1469.69 721.54C1469.69 724.28 1467.47 726.5 1464.73 726.5C1461.99 726.5 1459.77 724.28 1459.77 721.54C1459.77 718.8 1461.99 716.58 1464.73 716.58C1467.47 716.58 1469.69 718.8 1469.69 721.54Z" /><path fill-rule="evenodd" class="shp1" d="M1519.29 721.54C1519.29 724.28 1517.06 726.5 1514.33 726.5C1511.59 726.5 1509.37 724.28 1509.37 721.54C1509.37 718.8 1511.59 716.58 1514.33 716.58C1517.06 716.58 1519.29 718.8 1519.29 721.54Z" /><path fill-rule="evenodd" class="shp1" d="M1568.88 721.54C1568.88 724.28 1566.66 726.5 1563.92 726.5C1561.18 726.5 1558.96 724.28 1558.96 721.54C1558.96 718.8 1561.18 716.58 1563.92 716.58C1566.66 716.58 1568.88 718.8 1568.88 721.54Z" /><path fill-rule="evenodd" class="shp1" d="M1618.47 721.54C1618.47 724.28 1616.25 726.5 1613.51 726.5C1610.77 726.5 1608.55 724.28 1608.55 721.54C1608.55 718.8 1610.77 716.58 1613.51 716.58C1616.25 716.58 1618.47 718.8 1618.47 721.54Z" /><path fill-rule="evenodd" class="shp1" d="M1668.06 721.54C1668.06 724.28 1665.84 726.5 1663.1 726.5C1660.37 726.5 1658.14 724.28 1658.14 721.54C1658.14 718.8 1660.37 716.58 1663.1 716.58C1665.84 716.58 1668.06 718.8 1668.06 721.54Z" /><path fill-rule="evenodd" class="shp1" d="M1717.66 721.54C1717.66 724.28 1715.44 726.5 1712.7 726.5C1709.96 726.5 1707.74 724.28 1707.74 721.54C1707.74 718.8 1709.96 716.58 1712.7 716.58C1715.44 716.58 1717.66 718.8 1717.66 721.54Z" /><path fill-rule="evenodd" class="shp1" d="M1767.25 721.54C1767.25 724.28 1765.03 726.5 1762.29 726.5C1759.55 726.5 1757.33 724.28 1757.33 721.54C1757.33 718.8 1759.55 716.58 1762.29 716.58C1765.03 716.58 1767.25 718.8 1767.25 721.54Z" /><path fill-rule="evenodd" class="shp1" d="M1816.84 721.54C1816.84 724.28 1814.62 726.5 1811.88 726.5C1809.14 726.5 1806.92 724.28 1806.92 721.54C1806.92 718.8 1809.14 716.58 1811.88 716.58C1814.62 716.58 1816.84 718.8 1816.84 721.54Z" /><path fill-rule="evenodd" class="shp1" d="M1469.69 771.13C1469.69 773.87 1467.47 776.09 1464.73 776.09C1461.99 776.09 1459.77 773.87 1459.77 771.13C1459.77 768.4 1461.99 766.18 1464.73 766.18C1467.47 766.18 1469.69 768.4 1469.69 771.13Z" /><path fill-rule="evenodd" class="shp1" d="M1519.29 771.13C1519.29 773.87 1517.06 776.09 1514.33 776.09C1511.59 776.09 1509.37 773.87 1509.37 771.13C1509.37 768.4 1511.59 766.18 1514.33 766.18C1517.06 766.18 1519.29 768.4 1519.29 771.13Z" /><path fill-rule="evenodd" class="shp1" d="M1568.88 771.13C1568.88 773.87 1566.66 776.09 1563.92 776.09C1561.18 776.09 1558.96 773.87 1558.96 771.13C1558.96 768.4 1561.18 766.18 1563.92 766.18C1566.66 766.18 1568.88 768.4 1568.88 771.13Z" /><path fill-rule="evenodd" class="shp1" d="M1618.47 771.13C1618.47 773.87 1616.25 776.09 1613.51 776.09C1610.77 776.09 1608.55 773.87 1608.55 771.13C1608.55 768.4 1610.77 766.18 1613.51 766.18C1616.25 766.18 1618.47 768.4 1618.47 771.13Z" /><path fill-rule="evenodd" class="shp1" d="M1668.06 771.13C1668.06 773.87 1665.84 776.09 1663.1 776.09C1660.37 776.09 1658.14 773.87 1658.14 771.13C1658.14 768.4 1660.37 766.18 1663.1 766.18C1665.84 766.18 1668.06 768.4 1668.06 771.13Z" /><path fill-rule="evenodd" class="shp1" d="M1717.66 771.13C1717.66 773.87 1715.44 776.09 1712.7 776.09C1709.96 776.09 1707.74 773.87 1707.74 771.13C1707.74 768.4 1709.96 766.18 1712.7 766.18C1715.44 766.18 1717.66 768.4 1717.66 771.13Z" /><path fill-rule="evenodd" class="shp1" d="M1767.25 771.13C1767.25 773.87 1765.03 776.09 1762.29 776.09C1759.55 776.09 1757.33 773.87 1757.33 771.13C1757.33 768.4 1759.55 766.18 1762.29 766.18C1765.03 766.18 1767.25 768.4 1767.25 771.13Z" /><path fill-rule="evenodd" class="shp1" d="M1816.84 771.13C1816.84 773.87 1814.62 776.09 1811.88 776.09C1809.14 776.09 1806.92 773.87 1806.92 771.13C1806.92 768.4 1809.14 766.18 1811.88 766.18C1814.62 766.18 1816.84 768.4 1816.84 771.13Z" /><path fill-rule="evenodd" class="shp1" d="M1469.69 820.73C1469.69 823.47 1467.47 825.69 1464.73 825.69C1461.99 825.69 1459.77 823.47 1459.77 820.73C1459.77 817.99 1461.99 815.77 1464.73 815.77C1467.47 815.77 1469.69 817.99 1469.69 820.73Z" /><path fill-rule="evenodd" class="shp1" d="M1519.29 820.73C1519.29 823.47 1517.06 825.69 1514.33 825.69C1511.59 825.69 1509.37 823.47 1509.37 820.73C1509.37 817.99 1511.59 815.77 1514.33 815.77C1517.06 815.77 1519.29 817.99 1519.29 820.73Z" /><path fill-rule="evenodd" class="shp1" d="M1568.88 820.73C1568.88 823.47 1566.66 825.69 1563.92 825.69C1561.18 825.69 1558.96 823.47 1558.96 820.73C1558.96 817.99 1561.18 815.77 1563.92 815.77C1566.66 815.77 1568.88 817.99 1568.88 820.73Z" /><path fill-rule="evenodd" class="shp1" d="M1618.47 820.73C1618.47 823.47 1616.25 825.69 1613.51 825.69C1610.77 825.69 1608.55 823.47 1608.55 820.73C1608.55 817.99 1610.77 815.77 1613.51 815.77C1616.25 815.77 1618.47 817.99 1618.47 820.73Z" /><path fill-rule="evenodd" class="shp1" d="M1668.06 820.73C1668.06 823.47 1665.84 825.69 1663.1 825.69C1660.37 825.69 1658.14 823.47 1658.14 820.73C1658.14 817.99 1660.37 815.77 1663.1 815.77C1665.84 815.77 1668.06 817.99 1668.06 820.73Z" /><path fill-rule="evenodd" class="shp1" d="M1717.66 820.73C1717.66 823.47 1715.44 825.69 1712.7 825.69C1709.96 825.69 1707.74 823.47 1707.74 820.73C1707.74 817.99 1709.96 815.77 1712.7 815.77C1715.44 815.77 1717.66 817.99 1717.66 820.73Z" /><path fill-rule="evenodd" class="shp1" d="M1767.25 820.73C1767.25 823.47 1765.03 825.69 1762.29 825.69C1759.55 825.69 1757.33 823.47 1757.33 820.73C1757.33 817.99 1759.55 815.77 1762.29 815.77C1765.03 815.77 1767.25 817.99 1767.25 820.73Z" /><path fill-rule="evenodd" class="shp1" d="M1816.84 820.73C1816.84 823.47 1814.62 825.69 1811.88 825.69C1809.14 825.69 1806.92 823.47 1806.92 820.73C1806.92 817.99 1809.14 815.77 1811.88 815.77C1814.62 815.77 1816.84 817.99 1816.84 820.73Z" /><path fill-rule="evenodd" class="shp1" d="M1469.69 870.32C1469.69 873.06 1467.47 875.28 1464.73 875.28C1461.99 875.28 1459.77 873.06 1459.77 870.32C1459.77 867.58 1461.99 865.36 1464.73 865.36C1467.47 865.36 1469.69 867.58 1469.69 870.32Z" /><path fill-rule="evenodd" class="shp1" d="M1519.29 870.32C1519.29 873.06 1517.06 875.28 1514.33 875.28C1511.59 875.28 1509.37 873.06 1509.37 870.32C1509.37 867.58 1511.59 865.36 1514.33 865.36C1517.06 865.36 1519.29 867.58 1519.29 870.32Z" /><path fill-rule="evenodd" class="shp1" d="M1568.88 870.32C1568.88 873.06 1566.66 875.28 1563.92 875.28C1561.18 875.28 1558.96 873.06 1558.96 870.32C1558.96 867.58 1561.18 865.36 1563.92 865.36C1566.66 865.36 1568.88 867.58 1568.88 870.32Z" /><path fill-rule="evenodd" class="shp1" d="M1618.47 870.32C1618.47 873.06 1616.25 875.28 1613.51 875.28C1610.77 875.28 1608.55 873.06 1608.55 870.32C1608.55 867.58 1610.77 865.36 1613.51 865.36C1616.25 865.36 1618.47 867.58 1618.47 870.32Z" /><path fill-rule="evenodd" class="shp1" d="M1668.06 870.32C1668.06 873.06 1665.84 875.28 1663.1 875.28C1660.37 875.28 1658.14 873.06 1658.14 870.32C1658.14 867.58 1660.37 865.36 1663.1 865.36C1665.84 865.36 1668.06 867.58 1668.06 870.32Z" /><path fill-rule="evenodd" class="shp1" d="M1717.66 870.32C1717.66 873.06 1715.44 875.28 1712.7 875.28C1709.96 875.28 1707.74 873.06 1707.74 870.32C1707.74 867.58 1709.96 865.36 1712.7 865.36C1715.44 865.36 1717.66 867.58 1717.66 870.32Z" /><path fill-rule="evenodd" class="shp1" d="M1767.25 870.32C1767.25 873.06 1765.03 875.28 1762.29 875.28C1759.55 875.28 1757.33 873.06 1757.33 870.32C1757.33 867.58 1759.55 865.36 1762.29 865.36C1765.03 865.36 1767.25 867.58 1767.25 870.32Z" /><path fill-rule="evenodd" class="shp1" d="M1816.84 870.32C1816.84 873.06 1814.62 875.28 1811.88 875.28C1809.14 875.28 1806.92 873.06 1806.92 870.32C1806.92 867.58 1809.14 865.36 1811.88 865.36C1814.62 865.36 1816.84 867.58 1816.84 870.32Z" /><path fill-rule="evenodd" class="shp1" d="M1469.69 919.91C1469.69 922.65 1467.47 924.87 1464.73 924.87C1461.99 924.87 1459.77 922.65 1459.77 919.91C1459.77 917.17 1461.99 914.95 1464.73 914.95C1467.47 914.95 1469.69 917.17 1469.69 919.91Z" /><path fill-rule="evenodd" class="shp1" d="M1519.29 919.91C1519.29 922.65 1517.06 924.87 1514.33 924.87C1511.59 924.87 1509.37 922.65 1509.37 919.91C1509.37 917.17 1511.59 914.95 1514.33 914.95C1517.06 914.95 1519.29 917.17 1519.29 919.91Z" /><path fill-rule="evenodd" class="shp1" d="M1568.88 919.91C1568.88 922.65 1566.66 924.87 1563.92 924.87C1561.18 924.87 1558.96 922.65 1558.96 919.91C1558.96 917.17 1561.18 914.95 1563.92 914.95C1566.66 914.95 1568.88 917.17 1568.88 919.91Z" /><path fill-rule="evenodd" class="shp1" d="M1618.47 919.91C1618.47 922.65 1616.25 924.87 1613.51 924.87C1610.77 924.87 1608.55 922.65 1608.55 919.91C1608.55 917.17 1610.77 914.95 1613.51 914.95C1616.25 914.95 1618.47 917.17 1618.47 919.91Z" /><path fill-rule="evenodd" class="shp1" d="M1668.06 919.91C1668.06 922.65 1665.84 924.87 1663.1 924.87C1660.37 924.87 1658.14 922.65 1658.14 919.91C1658.14 917.17 1660.37 914.95 1663.1 914.95C1665.84 914.95 1668.06 917.17 1668.06 919.91Z" /><path fill-rule="evenodd" class="shp1" d="M1717.66 919.91C1717.66 922.65 1715.44 924.87 1712.7 924.87C1709.96 924.87 1707.74 922.65 1707.74 919.91C1707.74 917.17 1709.96 914.95 1712.7 914.95C1715.44 914.95 1717.66 917.17 1717.66 919.91Z" /><path fill-rule="evenodd" class="shp1" d="M1767.25 919.91C1767.25 922.65 1765.03 924.87 1762.29 924.87C1759.55 924.87 1757.33 922.65 1757.33 919.91C1757.33 917.17 1759.55 914.95 1762.29 914.95C1765.03 914.95 1767.25 917.17 1767.25 919.91Z" /><path fill-rule="evenodd" class="shp1" d="M1816.84 919.91C1816.84 922.65 1814.62 924.87 1811.88 924.87C1809.14 924.87 1806.92 922.65 1806.92 919.91C1806.92 917.17 1809.14 914.95 1811.88 914.95C1814.62 914.95 1816.84 917.17 1816.84 919.91Z" /><path fill-rule="evenodd" class="shp1" d="M1469.69 969.51C1469.69 972.24 1467.47 974.46 1464.73 974.46C1461.99 974.46 1459.77 972.24 1459.77 969.51C1459.77 966.77 1461.99 964.55 1464.73 964.55C1467.47 964.55 1469.69 966.77 1469.69 969.51Z" /><path fill-rule="evenodd" class="shp1" d="M1519.29 969.51C1519.29 972.24 1517.06 974.46 1514.33 974.46C1511.59 974.46 1509.37 972.24 1509.37 969.51C1509.37 966.77 1511.59 964.55 1514.33 964.55C1517.06 964.55 1519.29 966.77 1519.29 969.51Z" /><path fill-rule="evenodd" class="shp1" d="M1568.88 969.51C1568.88 972.24 1566.66 974.46 1563.92 974.46C1561.18 974.46 1558.96 972.24 1558.96 969.51C1558.96 966.77 1561.18 964.55 1563.92 964.55C1566.66 964.55 1568.88 966.77 1568.88 969.51Z" /><path fill-rule="evenodd" class="shp1" d="M1618.47 969.51C1618.47 972.24 1616.25 974.46 1613.51 974.46C1610.77 974.46 1608.55 972.24 1608.55 969.51C1608.55 966.77 1610.77 964.55 1613.51 964.55C1616.25 964.55 1618.47 966.77 1618.47 969.51Z" /><path fill-rule="evenodd" class="shp1" d="M1668.06 969.51C1668.06 972.24 1665.84 974.46 1663.1 974.46C1660.37 974.46 1658.14 972.24 1658.14 969.51C1658.14 966.77 1660.37 964.55 1663.1 964.55C1665.84 964.55 1668.06 966.77 1668.06 969.51Z" /><path fill-rule="evenodd" class="shp1" d="M1717.66 969.51C1717.66 972.24 1715.44 974.46 1712.7 974.46C1709.96 974.46 1707.74 972.24 1707.74 969.51C1707.74 966.77 1709.96 964.55 1712.7 964.55C1715.44 964.55 1717.66 966.77 1717.66 969.51Z" /><path fill-rule="evenodd" class="shp1" d="M1767.25 969.51C1767.25 972.24 1765.03 974.46 1762.29 974.46C1759.55 974.46 1757.33 972.24 1757.33 969.51C1757.33 966.77 1759.55 964.55 1762.29 964.55C1765.03 964.55 1767.25 966.77 1767.25 969.51Z" /><path fill-rule="evenodd" class="shp1" d="M1816.84 969.51C1816.84 972.24 1814.62 974.46 1811.88 974.46C1809.14 974.46 1806.92 972.24 1806.92 969.51C1806.92 966.77 1809.14 964.55 1811.88 964.55C1814.62 964.55 1816.84 966.77 1816.84 969.51Z" /><path fill-rule="evenodd" class="shp1" d="M1469.69 1019.1C1469.69 1021.84 1467.47 1024.06 1464.73 1024.06C1461.99 1024.06 1459.77 1021.84 1459.77 1019.1C1459.77 1016.36 1461.99 1014.14 1464.73 1014.14C1467.47 1014.14 1469.69 1016.36 1469.69 1019.1Z" /><path fill-rule="evenodd" class="shp1" d="M1519.29 1019.1C1519.29 1021.84 1517.06 1024.06 1514.33 1024.06C1511.59 1024.06 1509.37 1021.84 1509.37 1019.1C1509.37 1016.36 1511.59 1014.14 1514.33 1014.14C1517.06 1014.14 1519.29 1016.36 1519.29 1019.1Z" /><path fill-rule="evenodd" class="shp1" d="M1568.88 1019.1C1568.88 1021.84 1566.66 1024.06 1563.92 1024.06C1561.18 1024.06 1558.96 1021.84 1558.96 1019.1C1558.96 1016.36 1561.18 1014.14 1563.92 1014.14C1566.66 1014.14 1568.88 1016.36 1568.88 1019.1Z" /><path fill-rule="evenodd" class="shp1" d="M1618.47 1019.1C1618.47 1021.84 1616.25 1024.06 1613.51 1024.06C1610.77 1024.06 1608.55 1021.84 1608.55 1019.1C1608.55 1016.36 1610.77 1014.14 1613.51 1014.14C1616.25 1014.14 1618.47 1016.36 1618.47 1019.1Z" /><path fill-rule="evenodd" class="shp1" d="M1668.06 1019.1C1668.06 1021.84 1665.84 1024.06 1663.1 1024.06C1660.37 1024.06 1658.14 1021.84 1658.14 1019.1C1658.14 1016.36 1660.37 1014.14 1663.1 1014.14C1665.84 1014.14 1668.06 1016.36 1668.06 1019.1Z" /><path fill-rule="evenodd" class="shp1" d="M1717.66 1019.1C1717.66 1021.84 1715.44 1024.06 1712.7 1024.06C1709.96 1024.06 1707.74 1021.84 1707.74 1019.1C1707.74 1016.36 1709.96 1014.14 1712.7 1014.14C1715.44 1014.14 1717.66 1016.36 1717.66 1019.1Z" /><path fill-rule="evenodd" class="shp1" d="M1767.25 1019.1C1767.25 1021.84 1765.03 1024.06 1762.29 1024.06C1759.55 1024.06 1757.33 1021.84 1757.33 1019.1C1757.33 1016.36 1759.55 1014.14 1762.29 1014.14C1765.03 1014.14 1767.25 1016.36 1767.25 1019.1Z" /><path fill-rule="evenodd" class="shp1" d="M1816.84 1019.1C1816.84 1021.84 1814.62 1024.06 1811.88 1024.06C1809.14 1024.06 1806.92 1021.84 1806.92 1019.1C1806.92 1016.36 1809.14 1014.14 1811.88 1014.14C1814.62 1014.14 1816.84 1016.36 1816.84 1019.1Z" /><path fill-rule="evenodd" class="shp1" d="M1469.69 1068.69C1469.69 1071.43 1467.47 1073.65 1464.73 1073.65C1461.99 1073.65 1459.77 1071.43 1459.77 1068.69C1459.77 1065.95 1461.99 1063.73 1464.73 1063.73C1467.47 1063.73 1469.69 1065.95 1469.69 1068.69Z" /><path fill-rule="evenodd" class="shp1" d="M1519.29 1068.69C1519.29 1071.43 1517.06 1073.65 1514.33 1073.65C1511.59 1073.65 1509.37 1071.43 1509.37 1068.69C1509.37 1065.95 1511.59 1063.73 1514.33 1063.73C1517.06 1063.73 1519.29 1065.95 1519.29 1068.69Z" /><path fill-rule="evenodd" class="shp1" d="M1568.88 1068.69C1568.88 1071.43 1566.66 1073.65 1563.92 1073.65C1561.18 1073.65 1558.96 1071.43 1558.96 1068.69C1558.96 1065.95 1561.18 1063.73 1563.92 1063.73C1566.66 1063.73 1568.88 1065.95 1568.88 1068.69Z" /><path fill-rule="evenodd" class="shp1" d="M1618.47 1068.69C1618.47 1071.43 1616.25 1073.65 1613.51 1073.65C1610.77 1073.65 1608.55 1071.43 1608.55 1068.69C1608.55 1065.95 1610.77 1063.73 1613.51 1063.73C1616.25 1063.73 1618.47 1065.95 1618.47 1068.69Z" /><path fill-rule="evenodd" class="shp1" d="M1668.06 1068.69C1668.06 1071.43 1665.84 1073.65 1663.1 1073.65C1660.37 1073.65 1658.14 1071.43 1658.14 1068.69C1658.14 1065.95 1660.37 1063.73 1663.1 1063.73C1665.84 1063.73 1668.06 1065.95 1668.06 1068.69Z" /><path fill-rule="evenodd" class="shp1" d="M1717.66 1068.69C1717.66 1071.43 1715.44 1073.65 1712.7 1073.65C1709.96 1073.65 1707.74 1071.43 1707.74 1068.69C1707.74 1065.95 1709.96 1063.73 1712.7 1063.73C1715.44 1063.73 1717.66 1065.95 1717.66 1068.69Z" /><path fill-rule="evenodd" class="shp1" d="M1767.25 1068.69C1767.25 1071.43 1765.03 1073.65 1762.29 1073.65C1759.55 1073.65 1757.33 1071.43 1757.33 1068.69C1757.33 1065.95 1759.55 1063.73 1762.29 1063.73C1765.03 1063.73 1767.25 1065.95 1767.25 1068.69Z" /><path fill-rule="evenodd" class="shp1" d="M1816.84 1068.69C1816.84 1071.43 1814.62 1073.65 1811.88 1073.65C1809.14 1073.65 1806.92 1071.43 1806.92 1068.69C1806.92 1065.95 1809.14 1063.73 1811.88 1063.73C1814.62 1063.73 1816.84 1065.95 1816.84 1068.69Z" /></g></g><path fill-rule="evenodd" class="shp2" d="M1636.81 445.03C1646.75 445.03 1654.81 436.97 1654.81 427.03C1654.81 417.09 1646.75 409.02 1636.81 409.02C1626.86 409.02 1618.8 417.09 1618.8 427.03C1618.8 436.97 1626.86 445.03 1636.81 445.03Z" /><g style="opacity: 0.271"><g ><path fill-rule="evenodd" class="shp1" d="M1069.12 8.99C1069.12 11.73 1066.9 13.95 1064.16 13.95C1061.42 13.95 1059.2 11.73 1059.2 8.99C1059.2 6.25 1061.42 4.03 1064.16 4.03C1066.9 4.03 1069.12 6.25 1069.12 8.99Z" /><path fill-rule="evenodd" class="shp1" d="M1118.71 8.99C1118.71 11.73 1116.49 13.95 1113.75 13.95C1111.01 13.95 1108.79 11.73 1108.79 8.99C1108.79 6.25 1111.01 4.03 1113.75 4.03C1116.49 4.03 1118.71 6.25 1118.71 8.99Z" /><path fill-rule="evenodd" class="shp1" d="M1168.3 8.99C1168.3 11.73 1166.08 13.95 1163.34 13.95C1160.6 13.95 1158.38 11.73 1158.38 8.99C1158.38 6.25 1160.6 4.03 1163.34 4.03C1166.08 4.03 1168.3 6.25 1168.3 8.99Z" /><path fill-rule="evenodd" class="shp1" d="M1217.9 8.99C1217.9 11.73 1215.67 13.95 1212.94 13.95C1210.2 13.95 1207.98 11.73 1207.98 8.99C1207.98 6.25 1210.2 4.03 1212.94 4.03C1215.67 4.03 1217.9 6.25 1217.9 8.99Z" /><path fill-rule="evenodd" class="shp1" d="M1267.49 8.99C1267.49 11.73 1265.27 13.95 1262.53 13.95C1259.79 13.95 1257.57 11.73 1257.57 8.99C1257.57 6.25 1259.79 4.03 1262.53 4.03C1265.27 4.03 1267.49 6.25 1267.49 8.99Z" /><path fill-rule="evenodd" class="shp1" d="M1317.08 8.99C1317.08 11.73 1314.86 13.95 1312.12 13.95C1309.38 13.95 1307.16 11.73 1307.16 8.99C1307.16 6.25 1309.38 4.03 1312.12 4.03C1314.86 4.03 1317.08 6.25 1317.08 8.99Z" /><path fill-rule="evenodd" class="shp1" d="M1366.67 8.99C1366.67 11.73 1364.45 13.95 1361.71 13.95C1358.98 13.95 1356.75 11.73 1356.75 8.99C1356.75 6.25 1358.98 4.03 1361.71 4.03C1364.45 4.03 1366.67 6.25 1366.67 8.99Z" /><path fill-rule="evenodd" class="shp1" d="M1416.27 8.99C1416.27 11.73 1414.05 13.95 1411.31 13.95C1408.57 13.95 1406.35 11.73 1406.35 8.99C1406.35 6.25 1408.57 4.03 1411.31 4.03C1414.05 4.03 1416.27 6.25 1416.27 8.99Z" /><path fill-rule="evenodd" class="shp1" d="M1069.12 58.58C1069.12 61.32 1066.9 63.54 1064.16 63.54C1061.42 63.54 1059.2 61.32 1059.2 58.58C1059.2 55.85 1061.42 53.62 1064.16 53.62C1066.9 53.62 1069.12 55.85 1069.12 58.58Z" /><path fill-rule="evenodd" class="shp1" d="M1118.71 58.58C1118.71 61.32 1116.49 63.54 1113.75 63.54C1111.01 63.54 1108.79 61.32 1108.79 58.58C1108.79 55.85 1111.01 53.62 1113.75 53.62C1116.49 53.62 1118.71 55.85 1118.71 58.58Z" /><path fill-rule="evenodd" class="shp1" d="M1168.3 58.58C1168.3 61.32 1166.08 63.54 1163.34 63.54C1160.6 63.54 1158.38 61.32 1158.38 58.58C1158.38 55.85 1160.6 53.62 1163.34 53.62C1166.08 53.62 1168.3 55.85 1168.3 58.58Z" /><path fill-rule="evenodd" class="shp1" d="M1217.9 58.58C1217.9 61.32 1215.67 63.54 1212.94 63.54C1210.2 63.54 1207.98 61.32 1207.98 58.58C1207.98 55.85 1210.2 53.62 1212.94 53.62C1215.67 53.62 1217.9 55.85 1217.9 58.58Z" /><path fill-rule="evenodd" class="shp1" d="M1267.49 58.58C1267.49 61.32 1265.27 63.54 1262.53 63.54C1259.79 63.54 1257.57 61.32 1257.57 58.58C1257.57 55.85 1259.79 53.62 1262.53 53.62C1265.27 53.62 1267.49 55.85 1267.49 58.58Z" /><path fill-rule="evenodd" class="shp1" d="M1317.08 58.58C1317.08 61.32 1314.86 63.54 1312.12 63.54C1309.38 63.54 1307.16 61.32 1307.16 58.58C1307.16 55.85 1309.38 53.62 1312.12 53.62C1314.86 53.62 1317.08 55.85 1317.08 58.58Z" /><path fill-rule="evenodd" class="shp1" d="M1366.67 58.58C1366.67 61.32 1364.45 63.54 1361.71 63.54C1358.98 63.54 1356.75 61.32 1356.75 58.58C1356.75 55.85 1358.98 53.62 1361.71 53.62C1364.45 53.62 1366.67 55.85 1366.67 58.58Z" /><path fill-rule="evenodd" class="shp1" d="M1416.27 58.58C1416.27 61.32 1414.05 63.54 1411.31 63.54C1408.57 63.54 1406.35 61.32 1406.35 58.58C1406.35 55.85 1408.57 53.62 1411.31 53.62C1414.05 53.62 1416.27 55.85 1416.27 58.58Z" /><path fill-rule="evenodd" class="shp1" d="M1069.12 108.18C1069.12 110.92 1066.9 113.14 1064.16 113.14C1061.42 113.14 1059.2 110.92 1059.2 108.18C1059.2 105.44 1061.42 103.22 1064.16 103.22C1066.9 103.22 1069.12 105.44 1069.12 108.18Z" /><path fill-rule="evenodd" class="shp1" d="M1118.71 108.18C1118.71 110.92 1116.49 113.14 1113.75 113.14C1111.01 113.14 1108.79 110.92 1108.79 108.18C1108.79 105.44 1111.01 103.22 1113.75 103.22C1116.49 103.22 1118.71 105.44 1118.71 108.18Z" /><path fill-rule="evenodd" class="shp1" d="M1168.3 108.18C1168.3 110.92 1166.08 113.14 1163.34 113.14C1160.6 113.14 1158.38 110.92 1158.38 108.18C1158.38 105.44 1160.6 103.22 1163.34 103.22C1166.08 103.22 1168.3 105.44 1168.3 108.18Z" /><path fill-rule="evenodd" class="shp1" d="M1217.9 108.18C1217.9 110.92 1215.67 113.14 1212.94 113.14C1210.2 113.14 1207.98 110.92 1207.98 108.18C1207.98 105.44 1210.2 103.22 1212.94 103.22C1215.67 103.22 1217.9 105.44 1217.9 108.18Z" /><path fill-rule="evenodd" class="shp1" d="M1267.49 108.18C1267.49 110.92 1265.27 113.14 1262.53 113.14C1259.79 113.14 1257.57 110.92 1257.57 108.18C1257.57 105.44 1259.79 103.22 1262.53 103.22C1265.27 103.22 1267.49 105.44 1267.49 108.18Z" /><path fill-rule="evenodd" class="shp1" d="M1317.08 108.18C1317.08 110.92 1314.86 113.14 1312.12 113.14C1309.38 113.14 1307.16 110.92 1307.16 108.18C1307.16 105.44 1309.38 103.22 1312.12 103.22C1314.86 103.22 1317.08 105.44 1317.08 108.18Z" /><path fill-rule="evenodd" class="shp1" d="M1366.67 108.18C1366.67 110.92 1364.45 113.14 1361.71 113.14C1358.98 113.14 1356.75 110.92 1356.75 108.18C1356.75 105.44 1358.98 103.22 1361.71 103.22C1364.45 103.22 1366.67 105.44 1366.67 108.18Z" /><path fill-rule="evenodd" class="shp1" d="M1416.27 108.18C1416.27 110.92 1414.05 113.14 1411.31 113.14C1408.57 113.14 1406.35 110.92 1406.35 108.18C1406.35 105.44 1408.57 103.22 1411.31 103.22C1414.05 103.22 1416.27 105.44 1416.27 108.18Z" /><path fill-rule="evenodd" class="shp1" d="M1069.12 157.77C1069.12 160.51 1066.9 162.73 1064.16 162.73C1061.42 162.73 1059.2 160.51 1059.2 157.77C1059.2 155.03 1061.42 152.81 1064.16 152.81C1066.9 152.81 1069.12 155.03 1069.12 157.77Z" /><path fill-rule="evenodd" class="shp1" d="M1118.71 157.77C1118.71 160.51 1116.49 162.73 1113.75 162.73C1111.01 162.73 1108.79 160.51 1108.79 157.77C1108.79 155.03 1111.01 152.81 1113.75 152.81C1116.49 152.81 1118.71 155.03 1118.71 157.77Z" /><path fill-rule="evenodd" class="shp1" d="M1168.3 157.77C1168.3 160.51 1166.08 162.73 1163.34 162.73C1160.6 162.73 1158.38 160.51 1158.38 157.77C1158.38 155.03 1160.6 152.81 1163.34 152.81C1166.08 152.81 1168.3 155.03 1168.3 157.77Z" /><path fill-rule="evenodd" class="shp1" d="M1217.9 157.77C1217.9 160.51 1215.67 162.73 1212.94 162.73C1210.2 162.73 1207.98 160.51 1207.98 157.77C1207.98 155.03 1210.2 152.81 1212.94 152.81C1215.67 152.81 1217.9 155.03 1217.9 157.77Z" /><path fill-rule="evenodd" class="shp1" d="M1267.49 157.77C1267.49 160.51 1265.27 162.73 1262.53 162.73C1259.79 162.73 1257.57 160.51 1257.57 157.77C1257.57 155.03 1259.79 152.81 1262.53 152.81C1265.27 152.81 1267.49 155.03 1267.49 157.77Z" /><path fill-rule="evenodd" class="shp1" d="M1317.08 157.77C1317.08 160.51 1314.86 162.73 1312.12 162.73C1309.38 162.73 1307.16 160.51 1307.16 157.77C1307.16 155.03 1309.38 152.81 1312.12 152.81C1314.86 152.81 1317.08 155.03 1317.08 157.77Z" /><path fill-rule="evenodd" class="shp1" d="M1366.67 157.77C1366.67 160.51 1364.45 162.73 1361.71 162.73C1358.98 162.73 1356.75 160.51 1356.75 157.77C1356.75 155.03 1358.98 152.81 1361.71 152.81C1364.45 152.81 1366.67 155.03 1366.67 157.77Z" /><path fill-rule="evenodd" class="shp1" d="M1416.27 157.77C1416.27 160.51 1414.05 162.73 1411.31 162.73C1408.57 162.73 1406.35 160.51 1406.35 157.77C1406.35 155.03 1408.57 152.81 1411.31 152.81C1414.05 152.81 1416.27 155.03 1416.27 157.77Z" /><path fill-rule="evenodd" class="shp1" d="M1069.12 207.36C1069.12 210.1 1066.9 212.32 1064.16 212.32C1061.42 212.32 1059.2 210.1 1059.2 207.36C1059.2 204.62 1061.42 202.4 1064.16 202.4C1066.9 202.4 1069.12 204.62 1069.12 207.36Z" /><path fill-rule="evenodd" class="shp1" d="M1118.71 207.36C1118.71 210.1 1116.49 212.32 1113.75 212.32C1111.01 212.32 1108.79 210.1 1108.79 207.36C1108.79 204.62 1111.01 202.4 1113.75 202.4C1116.49 202.4 1118.71 204.62 1118.71 207.36Z" /><path fill-rule="evenodd" class="shp1" d="M1168.3 207.36C1168.3 210.1 1166.08 212.32 1163.34 212.32C1160.6 212.32 1158.38 210.1 1158.38 207.36C1158.38 204.62 1160.6 202.4 1163.34 202.4C1166.08 202.4 1168.3 204.62 1168.3 207.36Z" /><path fill-rule="evenodd" class="shp1" d="M1217.9 207.36C1217.9 210.1 1215.67 212.32 1212.94 212.32C1210.2 212.32 1207.98 210.1 1207.98 207.36C1207.98 204.62 1210.2 202.4 1212.94 202.4C1215.67 202.4 1217.9 204.62 1217.9 207.36Z" /><path fill-rule="evenodd" class="shp1" d="M1267.49 207.36C1267.49 210.1 1265.27 212.32 1262.53 212.32C1259.79 212.32 1257.57 210.1 1257.57 207.36C1257.57 204.62 1259.79 202.4 1262.53 202.4C1265.27 202.4 1267.49 204.62 1267.49 207.36Z" /><path fill-rule="evenodd" class="shp1" d="M1317.08 207.36C1317.08 210.1 1314.86 212.32 1312.12 212.32C1309.38 212.32 1307.16 210.1 1307.16 207.36C1307.16 204.62 1309.38 202.4 1312.12 202.4C1314.86 202.4 1317.08 204.62 1317.08 207.36Z" /><path fill-rule="evenodd" class="shp1" d="M1366.67 207.36C1366.67 210.1 1364.45 212.32 1361.71 212.32C1358.98 212.32 1356.75 210.1 1356.75 207.36C1356.75 204.62 1358.98 202.4 1361.71 202.4C1364.45 202.4 1366.67 204.62 1366.67 207.36Z" /><path fill-rule="evenodd" class="shp1" d="M1416.27 207.36C1416.27 210.1 1414.05 212.32 1411.31 212.32C1408.57 212.32 1406.35 210.1 1406.35 207.36C1406.35 204.62 1408.57 202.4 1411.31 202.4C1414.05 202.4 1416.27 204.62 1416.27 207.36Z" /><path fill-rule="evenodd" class="shp1" d="M1069.12 256.95C1069.12 259.69 1066.9 261.91 1064.16 261.91C1061.42 261.91 1059.2 259.69 1059.2 256.95C1059.2 254.22 1061.42 252 1064.16 252C1066.9 252 1069.12 254.22 1069.12 256.95Z" /><path fill-rule="evenodd" class="shp1" d="M1118.71 256.95C1118.71 259.69 1116.49 261.91 1113.75 261.91C1111.01 261.91 1108.79 259.69 1108.79 256.95C1108.79 254.22 1111.01 252 1113.75 252C1116.49 252 1118.71 254.22 1118.71 256.95Z" /><path fill-rule="evenodd" class="shp1" d="M1168.3 256.95C1168.3 259.69 1166.08 261.91 1163.34 261.91C1160.6 261.91 1158.38 259.69 1158.38 256.95C1158.38 254.22 1160.6 252 1163.34 252C1166.08 252 1168.3 254.22 1168.3 256.95Z" /><path fill-rule="evenodd" class="shp1" d="M1217.9 256.95C1217.9 259.69 1215.67 261.91 1212.94 261.91C1210.2 261.91 1207.98 259.69 1207.98 256.95C1207.98 254.22 1210.2 252 1212.94 252C1215.67 252 1217.9 254.22 1217.9 256.95Z" /><path fill-rule="evenodd" class="shp1" d="M1267.49 256.95C1267.49 259.69 1265.27 261.91 1262.53 261.91C1259.79 261.91 1257.57 259.69 1257.57 256.95C1257.57 254.22 1259.79 252 1262.53 252C1265.27 252 1267.49 254.22 1267.49 256.95Z" /><path fill-rule="evenodd" class="shp1" d="M1317.08 256.95C1317.08 259.69 1314.86 261.91 1312.12 261.91C1309.38 261.91 1307.16 259.69 1307.16 256.95C1307.16 254.22 1309.38 252 1312.12 252C1314.86 252 1317.08 254.22 1317.08 256.95Z" /><path fill-rule="evenodd" class="shp1" d="M1366.67 256.95C1366.67 259.69 1364.45 261.91 1361.71 261.91C1358.98 261.91 1356.75 259.69 1356.75 256.95C1356.75 254.22 1358.98 252 1361.71 252C1364.45 252 1366.67 254.22 1366.67 256.95Z" /><path fill-rule="evenodd" class="shp1" d="M1416.27 256.95C1416.27 259.69 1414.05 261.91 1411.31 261.91C1408.57 261.91 1406.35 259.69 1406.35 256.95C1406.35 254.22 1408.57 252 1411.31 252C1414.05 252 1416.27 254.22 1416.27 256.95Z" /><path fill-rule="evenodd" class="shp1" d="M1069.12 306.55C1069.12 309.29 1066.9 311.51 1064.16 311.51C1061.42 311.51 1059.2 309.29 1059.2 306.55C1059.2 303.81 1061.42 301.59 1064.16 301.59C1066.9 301.59 1069.12 303.81 1069.12 306.55Z" /><path fill-rule="evenodd" class="shp1" d="M1118.71 306.55C1118.71 309.29 1116.49 311.51 1113.75 311.51C1111.01 311.51 1108.79 309.29 1108.79 306.55C1108.79 303.81 1111.01 301.59 1113.75 301.59C1116.49 301.59 1118.71 303.81 1118.71 306.55Z" /><path fill-rule="evenodd" class="shp1" d="M1168.3 306.55C1168.3 309.29 1166.08 311.51 1163.34 311.51C1160.6 311.51 1158.38 309.29 1158.38 306.55C1158.38 303.81 1160.6 301.59 1163.34 301.59C1166.08 301.59 1168.3 303.81 1168.3 306.55Z" /><path fill-rule="evenodd" class="shp1" d="M1217.9 306.55C1217.9 309.29 1215.67 311.51 1212.94 311.51C1210.2 311.51 1207.98 309.29 1207.98 306.55C1207.98 303.81 1210.2 301.59 1212.94 301.59C1215.67 301.59 1217.9 303.81 1217.9 306.55Z" /><path fill-rule="evenodd" class="shp1" d="M1267.49 306.55C1267.49 309.29 1265.27 311.51 1262.53 311.51C1259.79 311.51 1257.57 309.29 1257.57 306.55C1257.57 303.81 1259.79 301.59 1262.53 301.59C1265.27 301.59 1267.49 303.81 1267.49 306.55Z" /><path fill-rule="evenodd" class="shp1" d="M1317.08 306.55C1317.08 309.29 1314.86 311.51 1312.12 311.51C1309.38 311.51 1307.16 309.29 1307.16 306.55C1307.16 303.81 1309.38 301.59 1312.12 301.59C1314.86 301.59 1317.08 303.81 1317.08 306.55Z" /><path fill-rule="evenodd" class="shp1" d="M1366.67 306.55C1366.67 309.29 1364.45 311.51 1361.71 311.51C1358.98 311.51 1356.75 309.29 1356.75 306.55C1356.75 303.81 1358.98 301.59 1361.71 301.59C1364.45 301.59 1366.67 303.81 1366.67 306.55Z" /><path fill-rule="evenodd" class="shp1" d="M1416.27 306.55C1416.27 309.29 1414.05 311.51 1411.31 311.51C1408.57 311.51 1406.35 309.29 1406.35 306.55C1406.35 303.81 1408.57 301.59 1411.31 301.59C1414.05 301.59 1416.27 303.81 1416.27 306.55Z" /></g></g><path fill-rule="evenodd" class="shp2" d="M1804.84 248.28L1826.06 269.5L1804.84 290.72L1783.62 269.5L1804.84 248.28Z" /><path fill-rule="evenodd" class="shp1" d="M1278.24 254.5C1284.86 254.5 1290.24 259.88 1290.24 266.5L1296.24 266.5C1296.24 256.57 1288.17 248.49 1278.24 248.49C1268.31 248.49 1260.24 256.57 1260.24 266.5L1266.24 266.5C1266.24 259.88 1271.62 254.5 1278.24 254.5Z" /><path fill-rule="evenodd" class="shp1" d="M1797.34 608.56C1787.41 608.56 1779.33 616.64 1779.33 626.57L1785.34 626.57C1785.34 619.95 1790.72 614.56 1797.34 614.56L1797.34 608.56Z" /></g></svg>
