<svg xmlns="http://www.w3.org/2000/svg" viewBox="0 0 1920 1644"><style>tspan { white-space:pre }.shp0 { fill: #3138d1 } .shp1 { fill: #3b43f2 } .shp2 { fill: none;stroke: #ffffff;stroke-width: 4 } .shp3 { fill: none;stroke: #3b43f2;stroke-width: 4 } .shp4 { fill: #ffffff } </style><g ><path fill-rule="evenodd" class="shp0" d="M1263.62 768.47L1820.52 211.57C1822.26 209.83 1824.04 208.14 1825.86 206.48C1827.68 204.83 1829.55 203.23 1831.45 201.67C1833.35 200.1 1835.29 198.59 1837.26 197.13C1839.24 195.66 1841.25 194.25 1843.29 192.88C1845.34 191.51 1847.42 190.2 1849.53 188.93C1851.64 187.67 1853.78 186.46 1855.95 185.3C1858.11 184.14 1860.31 183.03 1862.54 181.98C1864.76 180.93 1867.01 179.93 1869.28 178.99C1871.55 178.05 1873.85 177.16 1876.16 176.34C1878.48 175.51 1880.81 174.74 1883.17 174.02C1885.52 173.31 1887.89 172.65 1890.28 172.05C1892.66 171.46 1895.06 170.92 1897.47 170.44C1899.89 169.96 1902.31 169.54 1904.74 169.18C1907.18 168.82 1909.62 168.51 1912.07 168.27C1914.51 168.03 1916.96 167.85 1919.42 167.73C1921.88 167.61 1924.34 167.55 1926.8 167.55C1929.26 167.55 1931.71 167.61 1934.17 167.73C1936.63 167.85 1939.08 168.03 1941.53 168.27C1943.98 168.51 1946.42 168.82 1948.85 169.18C1951.28 169.54 1953.71 169.96 1956.12 170.44C1958.53 170.92 1960.93 171.46 1963.32 172.05C1965.7 172.65 1968.07 173.31 1970.43 174.02C1972.78 174.74 1975.11 175.51 1977.43 176.34C1979.75 177.16 1982.04 178.05 1984.31 178.99C1986.59 179.93 1988.83 180.93 1991.06 181.98C1993.28 183.03 1995.48 184.14 1997.65 185.3C1999.82 186.46 2001.96 187.67 2004.07 188.93C2006.18 190.2 2008.25 191.51 2010.3 192.88C2012.34 194.25 2014.35 195.66 2016.33 197.13C2018.31 198.59 2020.24 200.11 2022.15 201.67C2024.05 203.23 2025.91 204.83 2027.73 206.48C2029.55 208.14 2031.34 209.83 2033.07 211.57L2589.98 768.47C2591.72 770.21 2593.41 771.99 2595.07 773.82C2596.72 775.64 2598.32 777.5 2599.88 779.4C2601.44 781.31 2602.96 783.24 2604.42 785.22C2605.89 787.19 2607.3 789.21 2608.67 791.25C2610.04 793.3 2611.35 795.37 2612.62 797.48C2613.88 799.59 2615.09 801.73 2616.25 803.9C2617.41 806.07 2618.52 808.27 2619.57 810.49C2620.62 812.72 2621.62 814.96 2622.56 817.24C2623.5 819.51 2624.38 821.8 2625.21 824.12C2626.04 826.43 2626.81 828.77 2627.53 831.12C2628.24 833.48 2628.9 835.85 2629.5 838.23C2630.09 840.62 2630.63 843.02 2631.11 845.43C2631.59 847.84 2632.01 850.27 2632.37 852.7C2632.73 855.13 2633.03 857.57 2633.28 860.02C2633.52 862.47 2633.7 864.92 2633.82 867.38C2633.94 869.83 2634 872.29 2634 874.75C2634 877.21 2633.94 879.67 2633.82 882.13C2633.7 884.58 2633.52 887.04 2633.28 889.48C2633.03 891.93 2632.73 894.37 2632.37 896.81C2632.01 899.24 2631.59 901.66 2631.11 904.07C2630.63 906.49 2630.09 908.89 2629.5 911.27C2628.9 913.66 2628.24 916.03 2627.53 918.38C2626.81 920.74 2626.04 923.07 2625.21 925.39C2624.38 927.7 2623.5 930 2622.56 932.27C2621.62 934.54 2620.62 936.79 2619.57 939.01C2618.52 941.24 2617.41 943.43 2616.25 945.6C2615.09 947.77 2613.88 949.91 2612.62 952.02C2611.35 954.13 2610.04 956.21 2608.67 958.25C2607.3 960.3 2605.89 962.31 2604.42 964.29C2602.96 966.26 2601.44 968.2 2599.88 970.1C2598.32 972 2596.72 973.86 2595.07 975.69C2593.41 977.51 2591.72 979.29 2589.98 981.03L2033.07 1537.93C2031.34 1539.67 2029.55 1541.37 2027.73 1543.02C2025.91 1544.67 2024.05 1546.28 2022.15 1547.84C2020.24 1549.4 2018.31 1550.91 2016.33 1552.38C2014.35 1553.84 2012.34 1555.26 2010.3 1556.62C2008.25 1557.99 2006.18 1559.31 2004.07 1560.57C2001.96 1561.84 1999.82 1563.05 1997.65 1564.21C1995.48 1565.37 1993.28 1566.47 1991.06 1567.52C1988.83 1568.58 1986.59 1569.57 1984.31 1570.51C1982.04 1571.46 1979.75 1572.34 1977.43 1573.17C1975.11 1574 1972.78 1574.77 1970.43 1575.48C1968.07 1576.2 1965.7 1576.85 1963.32 1577.45C1960.93 1578.05 1958.53 1578.59 1956.12 1579.07C1953.71 1579.55 1951.28 1579.97 1948.85 1580.33C1946.42 1580.69 1943.98 1580.99 1941.53 1581.23C1939.08 1581.47 1936.63 1581.65 1934.17 1581.77C1931.71 1581.9 1929.26 1581.96 1926.8 1581.96C1924.34 1581.96 1921.88 1581.9 1919.42 1581.77C1916.96 1581.65 1914.51 1581.47 1912.07 1581.23C1909.62 1580.99 1907.18 1580.69 1904.74 1580.33C1902.31 1579.97 1899.89 1579.55 1897.47 1579.07C1895.06 1578.59 1892.66 1578.05 1890.28 1577.45C1887.89 1576.85 1885.52 1576.2 1883.17 1575.48C1880.81 1574.77 1878.48 1574 1876.16 1573.17C1873.85 1572.34 1871.55 1571.46 1869.28 1570.51C1867.01 1569.57 1864.76 1568.58 1862.54 1567.53C1860.31 1566.47 1858.11 1565.37 1855.95 1564.21C1853.78 1563.05 1851.64 1561.84 1849.53 1560.57C1847.42 1559.31 1845.34 1557.99 1843.29 1556.63C1841.25 1555.26 1839.24 1553.84 1837.26 1552.38C1835.29 1550.91 1833.35 1549.4 1831.45 1547.84C1829.55 1546.28 1827.68 1544.67 1825.86 1543.02C1824.04 1541.37 1822.26 1539.67 1820.52 1537.93L1263.62 981.03C1261.88 979.29 1260.18 977.51 1258.53 975.69C1256.88 973.86 1255.27 972 1253.71 970.1C1252.15 968.2 1250.64 966.26 1249.17 964.29C1247.71 962.31 1246.29 960.3 1244.92 958.25C1243.56 956.21 1242.24 954.13 1240.98 952.02C1239.71 949.91 1238.5 947.77 1237.34 945.6C1236.18 943.43 1235.08 941.24 1234.02 939.01C1232.97 936.79 1231.98 934.54 1231.03 932.27C1230.09 930 1229.21 927.7 1228.38 925.39C1227.55 923.07 1226.78 920.74 1226.07 918.38C1225.35 916.03 1224.7 913.66 1224.1 911.27C1223.5 908.89 1222.96 906.49 1222.48 904.07C1222 901.66 1221.58 899.24 1221.22 896.81C1220.86 894.37 1220.56 891.93 1220.32 889.48C1220.08 887.04 1219.9 884.58 1219.77 882.13C1219.65 879.67 1219.59 877.21 1219.59 874.75C1219.59 872.29 1219.65 869.83 1219.77 867.38C1219.9 864.92 1220.08 862.47 1220.32 860.02C1220.56 857.57 1220.86 855.13 1221.22 852.7C1221.58 850.27 1222 847.84 1222.48 845.43C1222.96 843.02 1223.5 840.62 1224.1 838.23C1224.7 835.85 1225.35 833.48 1226.07 831.12C1226.78 828.77 1227.55 826.43 1228.38 824.12C1229.21 821.8 1230.09 819.51 1231.03 817.24C1231.98 814.96 1232.97 812.71 1234.02 810.49C1235.08 808.27 1236.18 806.07 1237.34 803.9C1238.5 801.73 1239.71 799.59 1240.98 797.48C1242.24 795.37 1243.56 793.3 1244.92 791.25C1246.29 789.21 1247.71 787.19 1249.17 785.22C1250.64 783.24 1252.15 781.3 1253.71 779.4C1255.27 777.5 1256.88 775.64 1258.53 773.82C1260.18 771.99 1261.88 770.21 1263.62 768.47L1263.62 768.47Z" /><path fill-rule="evenodd" class="shp1" d="M178.04 795.09C396.77 795.09 574.09 617.78 574.09 399.05C574.09 180.32 396.77 3.01 178.04 3.01C-40.69 3.01 -218 180.32 -218 399.05C-218 617.78 -40.69 795.09 178.04 795.09Z" /><path fill-rule="evenodd" class="shp2" d="M1551.04 1076.16C1561 1076.16 1569.08 1068.08 1569.08 1058.12C1569.08 1048.16 1561 1040.08 1551.04 1040.08C1541.08 1040.08 1533.01 1048.16 1533.01 1058.12C1533.01 1068.08 1541.08 1076.16 1551.04 1076.16Z" /><path fill-rule="evenodd" class="shp3" d="M228.31 1125.54L249.57 1146.8L228.31 1168.05L207.06 1146.8L228.31 1125.54Z" /><path fill-rule="evenodd" class="shp1" d="M166.69 986.19C173.32 986.19 178.71 991.58 178.71 998.21L184.72 998.21C184.72 988.27 176.63 980.18 166.69 980.18C156.74 980.18 148.65 988.27 148.65 998.21L154.66 998.21C154.66 991.58 160.06 986.19 166.69 986.19Z" /><path fill-rule="evenodd" class="shp4" d="M1695.33 888.28C1685.39 888.28 1677.3 896.37 1677.3 906.32L1683.31 906.32C1683.31 899.69 1688.7 894.29 1695.33 894.29L1695.33 888.28Z" /><g ><g ><path fill-rule="evenodd" class="shp1" d="M1261.57 403.93C1261.57 406.22 1259.72 408.07 1257.44 408.07C1255.16 408.07 1253.3 406.22 1253.3 403.93C1253.3 401.65 1255.16 399.8 1257.44 399.8C1259.72 399.8 1261.57 401.65 1261.57 403.93Z" /><path fill-rule="evenodd" class="shp1" d="M1302.9 403.93C1302.9 406.22 1301.05 408.07 1298.77 408.07C1296.49 408.07 1294.64 406.22 1294.64 403.93C1294.64 401.65 1296.49 399.8 1298.77 399.8C1301.05 399.8 1302.9 401.65 1302.9 403.93Z" /><path fill-rule="evenodd" class="shp1" d="M1344.24 403.93C1344.24 406.22 1342.39 408.07 1340.1 408.07C1337.82 408.07 1335.97 406.22 1335.97 403.93C1335.97 401.65 1337.82 399.8 1340.1 399.8C1342.39 399.8 1344.24 401.65 1344.24 403.93Z" /><path fill-rule="evenodd" class="shp1" d="M1385.57 403.93C1385.57 406.22 1383.72 408.07 1381.44 408.07C1379.15 408.07 1377.3 406.22 1377.3 403.93C1377.3 401.65 1379.15 399.8 1381.44 399.8C1383.72 399.8 1385.57 401.65 1385.57 403.93Z" /><path fill-rule="evenodd" class="shp1" d="M1426.9 403.93C1426.9 406.22 1425.05 408.07 1422.77 408.07C1420.49 408.07 1418.64 406.22 1418.64 403.93C1418.64 401.65 1420.49 399.8 1422.77 399.8C1425.05 399.8 1426.9 401.65 1426.9 403.93Z" /><path fill-rule="evenodd" class="shp1" d="M1468.24 403.93C1468.24 406.22 1466.38 408.07 1464.1 408.07C1461.82 408.07 1459.97 406.22 1459.97 403.93C1459.97 401.65 1461.82 399.8 1464.1 399.8C1466.38 399.8 1468.24 401.65 1468.24 403.93Z" /><path fill-rule="evenodd" class="shp1" d="M1509.57 403.93C1509.57 406.22 1507.72 408.07 1505.43 408.07C1503.15 408.07 1501.3 406.22 1501.3 403.93C1501.3 401.65 1503.15 399.8 1505.43 399.8C1507.72 399.8 1509.57 401.65 1509.57 403.93Z" /><path fill-rule="evenodd" class="shp1" d="M1550.9 403.93C1550.9 406.22 1549.05 408.07 1546.77 408.07C1544.48 408.07 1542.63 406.22 1542.63 403.93C1542.63 401.65 1544.48 399.8 1546.77 399.8C1549.05 399.8 1550.9 401.65 1550.9 403.93Z" /><path fill-rule="evenodd" class="shp1" d="M1261.57 445.27C1261.57 447.55 1259.72 449.4 1257.44 449.4C1255.16 449.4 1253.3 447.55 1253.3 445.27C1253.3 442.98 1255.16 441.13 1257.44 441.13C1259.72 441.13 1261.57 442.98 1261.57 445.27Z" /><path fill-rule="evenodd" class="shp1" d="M1302.9 445.27C1302.9 447.55 1301.05 449.4 1298.77 449.4C1296.49 449.4 1294.64 447.55 1294.64 445.27C1294.64 442.98 1296.49 441.13 1298.77 441.13C1301.05 441.13 1302.9 442.98 1302.9 445.27Z" /><path fill-rule="evenodd" class="shp1" d="M1344.24 445.27C1344.24 447.55 1342.39 449.4 1340.1 449.4C1337.82 449.4 1335.97 447.55 1335.97 445.27C1335.97 442.98 1337.82 441.13 1340.1 441.13C1342.39 441.13 1344.24 442.98 1344.24 445.27Z" /><path fill-rule="evenodd" class="shp1" d="M1385.57 445.27C1385.57 447.55 1383.72 449.4 1381.44 449.4C1379.15 449.4 1377.3 447.55 1377.3 445.27C1377.3 442.98 1379.15 441.13 1381.44 441.13C1383.72 441.13 1385.57 442.98 1385.57 445.27Z" /><path fill-rule="evenodd" class="shp1" d="M1426.9 445.27C1426.9 447.55 1425.05 449.4 1422.77 449.4C1420.49 449.4 1418.64 447.55 1418.64 445.27C1418.64 442.98 1420.49 441.13 1422.77 441.13C1425.05 441.13 1426.9 442.98 1426.9 445.27Z" /><path fill-rule="evenodd" class="shp1" d="M1468.24 445.27C1468.24 447.55 1466.38 449.4 1464.1 449.4C1461.82 449.4 1459.97 447.55 1459.97 445.27C1459.97 442.98 1461.82 441.13 1464.1 441.13C1466.38 441.13 1468.24 442.98 1468.24 445.27Z" /><path fill-rule="evenodd" class="shp1" d="M1509.57 445.27C1509.57 447.55 1507.72 449.4 1505.43 449.4C1503.15 449.4 1501.3 447.55 1501.3 445.27C1501.3 442.98 1503.15 441.13 1505.43 441.13C1507.72 441.13 1509.57 442.98 1509.57 445.27Z" /><path fill-rule="evenodd" class="shp1" d="M1550.9 445.27C1550.9 447.55 1549.05 449.4 1546.77 449.4C1544.48 449.4 1542.63 447.55 1542.63 445.27C1542.63 442.98 1544.48 441.13 1546.77 441.13C1549.05 441.13 1550.9 442.98 1550.9 445.27Z" /><path fill-rule="evenodd" class="shp1" d="M1261.57 486.6C1261.57 488.88 1259.72 490.73 1257.44 490.73C1255.16 490.73 1253.3 488.88 1253.3 486.6C1253.3 484.32 1255.16 482.47 1257.44 482.47C1259.72 482.47 1261.57 484.32 1261.57 486.6Z" /><path fill-rule="evenodd" class="shp1" d="M1302.9 486.6C1302.9 488.88 1301.05 490.73 1298.77 490.73C1296.49 490.73 1294.64 488.88 1294.64 486.6C1294.64 484.32 1296.49 482.47 1298.77 482.47C1301.05 482.47 1302.9 484.32 1302.9 486.6Z" /><path fill-rule="evenodd" class="shp1" d="M1344.24 486.6C1344.24 488.88 1342.39 490.73 1340.1 490.73C1337.82 490.73 1335.97 488.88 1335.97 486.6C1335.97 484.32 1337.82 482.47 1340.1 482.47C1342.39 482.47 1344.24 484.32 1344.24 486.6Z" /><path fill-rule="evenodd" class="shp1" d="M1385.57 486.6C1385.57 488.88 1383.72 490.73 1381.44 490.73C1379.15 490.73 1377.3 488.88 1377.3 486.6C1377.3 484.32 1379.15 482.47 1381.44 482.47C1383.72 482.47 1385.57 484.32 1385.57 486.6Z" /><path fill-rule="evenodd" class="shp1" d="M1426.9 486.6C1426.9 488.88 1425.05 490.73 1422.77 490.73C1420.49 490.73 1418.64 488.88 1418.64 486.6C1418.64 484.32 1420.49 482.47 1422.77 482.47C1425.05 482.47 1426.9 484.32 1426.9 486.6Z" /><path fill-rule="evenodd" class="shp1" d="M1468.24 486.6C1468.24 488.88 1466.38 490.73 1464.1 490.73C1461.82 490.73 1459.97 488.88 1459.97 486.6C1459.97 484.32 1461.82 482.47 1464.1 482.47C1466.38 482.47 1468.24 484.32 1468.24 486.6Z" /><path fill-rule="evenodd" class="shp1" d="M1509.57 486.6C1509.57 488.88 1507.72 490.73 1505.43 490.73C1503.15 490.73 1501.3 488.88 1501.3 486.6C1501.3 484.32 1503.15 482.47 1505.43 482.47C1507.72 482.47 1509.57 484.32 1509.57 486.6Z" /><path fill-rule="evenodd" class="shp1" d="M1550.9 486.6C1550.9 488.88 1549.05 490.73 1546.77 490.73C1544.48 490.73 1542.63 488.88 1542.63 486.6C1542.63 484.32 1544.48 482.47 1546.77 482.47C1549.05 482.47 1550.9 484.32 1550.9 486.6Z" /><path fill-rule="evenodd" class="shp1" d="M1261.57 527.93C1261.57 530.22 1259.72 532.07 1257.44 532.07C1255.16 532.07 1253.3 530.22 1253.3 527.93C1253.3 525.65 1255.16 523.8 1257.44 523.8C1259.72 523.8 1261.57 525.65 1261.57 527.93Z" /><path fill-rule="evenodd" class="shp1" d="M1302.9 527.93C1302.9 530.22 1301.05 532.07 1298.77 532.07C1296.49 532.07 1294.64 530.22 1294.64 527.93C1294.64 525.65 1296.49 523.8 1298.77 523.8C1301.05 523.8 1302.9 525.65 1302.9 527.93Z" /><path fill-rule="evenodd" class="shp1" d="M1344.24 527.93C1344.24 530.22 1342.39 532.07 1340.1 532.07C1337.82 532.07 1335.97 530.22 1335.97 527.93C1335.97 525.65 1337.82 523.8 1340.1 523.8C1342.39 523.8 1344.24 525.65 1344.24 527.93Z" /><path fill-rule="evenodd" class="shp1" d="M1385.57 527.93C1385.57 530.22 1383.72 532.07 1381.44 532.07C1379.15 532.07 1377.3 530.22 1377.3 527.93C1377.3 525.65 1379.15 523.8 1381.44 523.8C1383.72 523.8 1385.57 525.65 1385.57 527.93Z" /><path fill-rule="evenodd" class="shp1" d="M1426.9 527.93C1426.9 530.22 1425.05 532.07 1422.77 532.07C1420.49 532.07 1418.64 530.22 1418.64 527.93C1418.64 525.65 1420.49 523.8 1422.77 523.8C1425.05 523.8 1426.9 525.65 1426.9 527.93Z" /><path fill-rule="evenodd" class="shp1" d="M1468.24 527.93C1468.24 530.22 1466.38 532.07 1464.1 532.07C1461.82 532.07 1459.97 530.22 1459.97 527.93C1459.97 525.65 1461.82 523.8 1464.1 523.8C1466.38 523.8 1468.24 525.65 1468.24 527.93Z" /><path fill-rule="evenodd" class="shp1" d="M1509.57 527.93C1509.57 530.22 1507.72 532.07 1505.43 532.07C1503.15 532.07 1501.3 530.22 1501.3 527.93C1501.3 525.65 1503.15 523.8 1505.43 523.8C1507.72 523.8 1509.57 525.65 1509.57 527.93Z" /><path fill-rule="evenodd" class="shp1" d="M1550.9 527.93C1550.9 530.22 1549.05 532.07 1546.77 532.07C1544.48 532.07 1542.63 530.22 1542.63 527.93C1542.63 525.65 1544.48 523.8 1546.77 523.8C1549.05 523.8 1550.9 525.65 1550.9 527.93Z" /><path fill-rule="evenodd" class="shp1" d="M1261.57 569.27C1261.57 571.55 1259.72 573.4 1257.44 573.4C1255.16 573.4 1253.3 571.55 1253.3 569.27C1253.3 566.98 1255.16 565.13 1257.44 565.13C1259.72 565.13 1261.57 566.98 1261.57 569.27Z" /><path fill-rule="evenodd" class="shp1" d="M1302.9 569.27C1302.9 571.55 1301.05 573.4 1298.77 573.4C1296.49 573.4 1294.64 571.55 1294.64 569.27C1294.64 566.98 1296.49 565.13 1298.77 565.13C1301.05 565.13 1302.9 566.98 1302.9 569.27Z" /><path fill-rule="evenodd" class="shp1" d="M1344.24 569.27C1344.24 571.55 1342.39 573.4 1340.1 573.4C1337.82 573.4 1335.97 571.55 1335.97 569.27C1335.97 566.98 1337.82 565.13 1340.1 565.13C1342.39 565.13 1344.24 566.98 1344.24 569.27Z" /><path fill-rule="evenodd" class="shp1" d="M1385.57 569.27C1385.57 571.55 1383.72 573.4 1381.44 573.4C1379.15 573.4 1377.3 571.55 1377.3 569.27C1377.3 566.98 1379.15 565.13 1381.44 565.13C1383.72 565.13 1385.57 566.98 1385.57 569.27Z" /><path fill-rule="evenodd" class="shp1" d="M1426.9 569.27C1426.9 571.55 1425.05 573.4 1422.77 573.4C1420.49 573.4 1418.64 571.55 1418.64 569.27C1418.64 566.98 1420.49 565.13 1422.77 565.13C1425.05 565.13 1426.9 566.98 1426.9 569.27Z" /><path fill-rule="evenodd" class="shp1" d="M1468.24 569.27C1468.24 571.55 1466.38 573.4 1464.1 573.4C1461.82 573.4 1459.97 571.55 1459.97 569.27C1459.97 566.98 1461.82 565.13 1464.1 565.13C1466.38 565.13 1468.24 566.98 1468.24 569.27Z" /><path fill-rule="evenodd" class="shp1" d="M1509.57 569.27C1509.57 571.55 1507.72 573.4 1505.43 573.4C1503.15 573.4 1501.3 571.55 1501.3 569.27C1501.3 566.98 1503.15 565.13 1505.43 565.13C1507.72 565.13 1509.57 566.98 1509.57 569.27Z" /><path fill-rule="evenodd" class="shp1" d="M1550.9 569.27C1550.9 571.55 1549.05 573.4 1546.77 573.4C1544.48 573.4 1542.63 571.55 1542.63 569.27C1542.63 566.98 1544.48 565.13 1546.77 565.13C1549.05 565.13 1550.9 566.98 1550.9 569.27Z" /><path fill-rule="evenodd" class="shp1" d="M1261.57 610.6C1261.57 612.88 1259.72 614.73 1257.44 614.73C1255.16 614.73 1253.3 612.88 1253.3 610.6C1253.3 608.32 1255.16 606.46 1257.44 606.46C1259.72 606.46 1261.57 608.32 1261.57 610.6Z" /><path fill-rule="evenodd" class="shp1" d="M1302.9 610.6C1302.9 612.88 1301.05 614.73 1298.77 614.73C1296.49 614.73 1294.64 612.88 1294.64 610.6C1294.64 608.32 1296.49 606.46 1298.77 606.46C1301.05 606.46 1302.9 608.32 1302.9 610.6Z" /><path fill-rule="evenodd" class="shp1" d="M1344.24 610.6C1344.24 612.88 1342.39 614.73 1340.1 614.73C1337.82 614.73 1335.97 612.88 1335.97 610.6C1335.97 608.32 1337.82 606.46 1340.1 606.46C1342.39 606.46 1344.24 608.32 1344.24 610.6Z" /><path fill-rule="evenodd" class="shp1" d="M1385.57 610.6C1385.57 612.88 1383.72 614.73 1381.44 614.73C1379.15 614.73 1377.3 612.88 1377.3 610.6C1377.3 608.32 1379.15 606.46 1381.44 606.46C1383.72 606.46 1385.57 608.32 1385.57 610.6Z" /><path fill-rule="evenodd" class="shp1" d="M1426.9 610.6C1426.9 612.88 1425.05 614.73 1422.77 614.73C1420.49 614.73 1418.64 612.88 1418.64 610.6C1418.64 608.32 1420.49 606.46 1422.77 606.46C1425.05 606.46 1426.9 608.32 1426.9 610.6Z" /><path fill-rule="evenodd" class="shp1" d="M1468.24 610.6C1468.24 612.88 1466.38 614.73 1464.1 614.73C1461.82 614.73 1459.97 612.88 1459.97 610.6C1459.97 608.32 1461.82 606.46 1464.1 606.46C1466.38 606.46 1468.24 608.32 1468.24 610.6Z" /><path fill-rule="evenodd" class="shp1" d="M1509.57 610.6C1509.57 612.88 1507.72 614.73 1505.43 614.73C1503.15 614.73 1501.3 612.88 1501.3 610.6C1501.3 608.32 1503.15 606.46 1505.43 606.46C1507.72 606.46 1509.57 608.32 1509.57 610.6Z" /><path fill-rule="evenodd" class="shp1" d="M1550.9 610.6C1550.9 612.88 1549.05 614.73 1546.77 614.73C1544.48 614.73 1542.63 612.88 1542.63 610.6C1542.63 608.32 1544.48 606.46 1546.77 606.46C1549.05 606.46 1550.9 608.32 1550.9 610.6Z" /><path fill-rule="evenodd" class="shp1" d="M1261.57 651.93C1261.57 654.21 1259.72 656.06 1257.44 656.06C1255.16 656.06 1253.3 654.21 1253.3 651.93C1253.3 649.65 1255.16 647.8 1257.44 647.8C1259.72 647.8 1261.57 649.65 1261.57 651.93Z" /><path fill-rule="evenodd" class="shp1" d="M1302.9 651.93C1302.9 654.21 1301.05 656.06 1298.77 656.06C1296.49 656.06 1294.64 654.21 1294.64 651.93C1294.64 649.65 1296.49 647.8 1298.77 647.8C1301.05 647.8 1302.9 649.65 1302.9 651.93Z" /><path fill-rule="evenodd" class="shp1" d="M1344.24 651.93C1344.24 654.21 1342.39 656.06 1340.1 656.06C1337.82 656.06 1335.97 654.21 1335.97 651.93C1335.97 649.65 1337.82 647.8 1340.1 647.8C1342.39 647.8 1344.24 649.65 1344.24 651.93Z" /><path fill-rule="evenodd" class="shp1" d="M1385.57 651.93C1385.57 654.21 1383.72 656.06 1381.44 656.06C1379.15 656.06 1377.3 654.21 1377.3 651.93C1377.3 649.65 1379.15 647.8 1381.44 647.8C1383.72 647.8 1385.57 649.65 1385.57 651.93Z" /><path fill-rule="evenodd" class="shp1" d="M1426.9 651.93C1426.9 654.21 1425.05 656.06 1422.77 656.06C1420.49 656.06 1418.64 654.21 1418.64 651.93C1418.64 649.65 1420.49 647.8 1422.77 647.8C1425.05 647.8 1426.9 649.65 1426.9 651.93Z" /><path fill-rule="evenodd" class="shp1" d="M1468.24 651.93C1468.24 654.21 1466.38 656.06 1464.1 656.06C1461.82 656.06 1459.97 654.21 1459.97 651.93C1459.97 649.65 1461.82 647.8 1464.1 647.8C1466.38 647.8 1468.24 649.65 1468.24 651.93Z" /><path fill-rule="evenodd" class="shp1" d="M1509.57 651.93C1509.57 654.21 1507.72 656.06 1505.43 656.06C1503.15 656.06 1501.3 654.21 1501.3 651.93C1501.3 649.65 1503.15 647.8 1505.43 647.8C1507.72 647.8 1509.57 649.65 1509.57 651.93Z" /><path fill-rule="evenodd" class="shp1" d="M1550.9 651.93C1550.9 654.21 1549.05 656.06 1546.77 656.06C1544.48 656.06 1542.63 654.21 1542.63 651.93C1542.63 649.65 1544.48 647.8 1546.77 647.8C1549.05 647.8 1550.9 649.65 1550.9 651.93Z" /><path fill-rule="evenodd" class="shp1" d="M1261.57 693.26C1261.57 695.55 1259.72 697.4 1257.44 697.4C1255.16 697.4 1253.3 695.55 1253.3 693.26C1253.3 690.98 1255.16 689.13 1257.44 689.13C1259.72 689.13 1261.57 690.98 1261.57 693.26Z" /><path fill-rule="evenodd" class="shp1" d="M1302.9 693.26C1302.9 695.55 1301.05 697.4 1298.77 697.4C1296.49 697.4 1294.64 695.55 1294.64 693.26C1294.64 690.98 1296.49 689.13 1298.77 689.13C1301.05 689.13 1302.9 690.98 1302.9 693.26Z" /><path fill-rule="evenodd" class="shp1" d="M1344.24 693.26C1344.24 695.55 1342.39 697.4 1340.1 697.4C1337.82 697.4 1335.97 695.55 1335.97 693.26C1335.97 690.98 1337.82 689.13 1340.1 689.13C1342.39 689.13 1344.24 690.98 1344.24 693.26Z" /><path fill-rule="evenodd" class="shp1" d="M1385.57 693.26C1385.57 695.55 1383.72 697.4 1381.44 697.4C1379.15 697.4 1377.3 695.55 1377.3 693.26C1377.3 690.98 1379.15 689.13 1381.44 689.13C1383.72 689.13 1385.57 690.98 1385.57 693.26Z" /><path fill-rule="evenodd" class="shp1" d="M1426.9 693.26C1426.9 695.55 1425.05 697.4 1422.77 697.4C1420.49 697.4 1418.64 695.55 1418.64 693.26C1418.64 690.98 1420.49 689.13 1422.77 689.13C1425.05 689.13 1426.9 690.98 1426.9 693.26Z" /><path fill-rule="evenodd" class="shp1" d="M1468.24 693.26C1468.24 695.55 1466.38 697.4 1464.1 697.4C1461.82 697.4 1459.97 695.55 1459.97 693.26C1459.97 690.98 1461.82 689.13 1464.1 689.13C1466.38 689.13 1468.24 690.98 1468.24 693.26Z" /><path fill-rule="evenodd" class="shp1" d="M1509.57 693.26C1509.57 695.55 1507.72 697.4 1505.43 697.4C1503.15 697.4 1501.3 695.55 1501.3 693.26C1501.3 690.98 1503.15 689.13 1505.43 689.13C1507.72 689.13 1509.57 690.98 1509.57 693.26Z" /><path fill-rule="evenodd" class="shp1" d="M1550.9 693.26C1550.9 695.55 1549.05 697.4 1546.77 697.4C1544.48 697.4 1542.63 695.55 1542.63 693.26C1542.63 690.98 1544.48 689.13 1546.77 689.13C1549.05 689.13 1550.9 690.98 1550.9 693.26Z" /></g></g><g ><g ><path fill-rule="evenodd" class="shp4" d="M122.6 102.66C122.6 105.41 120.37 107.63 117.63 107.63C114.89 107.63 112.66 105.41 112.66 102.66C112.66 99.92 114.89 97.7 117.63 97.7C120.37 97.7 122.6 99.92 122.6 102.66Z" /><path fill-rule="evenodd" class="shp4" d="M172.28 102.66C172.28 105.41 170.06 107.63 167.31 107.63C164.57 107.63 162.35 105.41 162.35 102.66C162.35 99.92 164.57 97.7 167.31 97.7C170.06 97.7 172.28 99.92 172.28 102.66Z" /><path fill-rule="evenodd" class="shp4" d="M221.96 102.66C221.96 105.41 219.74 107.63 217 107.63C214.25 107.63 212.03 105.41 212.03 102.66C212.03 99.92 214.25 97.7 217 97.7C219.74 97.7 221.96 99.92 221.96 102.66Z" /><path fill-rule="evenodd" class="shp4" d="M271.65 102.66C271.65 105.41 269.42 107.63 266.68 107.63C263.94 107.63 261.71 105.41 261.71 102.66C261.71 99.92 263.94 97.7 266.68 97.7C269.42 97.7 271.65 99.92 271.65 102.66Z" /><path fill-rule="evenodd" class="shp4" d="M321.33 102.66C321.33 105.41 319.11 107.63 316.36 107.63C313.62 107.63 311.39 105.41 311.39 102.66C311.39 99.92 313.62 97.7 316.36 97.7C319.11 97.7 321.33 99.92 321.33 102.66Z" /><path fill-rule="evenodd" class="shp4" d="M371.01 102.66C371.01 105.41 368.79 107.63 366.05 107.63C363.3 107.63 361.08 105.41 361.08 102.66C361.08 99.92 363.3 97.7 366.05 97.7C368.79 97.7 371.01 99.92 371.01 102.66Z" /><path fill-rule="evenodd" class="shp4" d="M420.7 102.66C420.7 105.41 418.47 107.63 415.73 107.63C412.98 107.63 410.76 105.41 410.76 102.66C410.76 99.92 412.98 97.7 415.73 97.7C418.47 97.7 420.7 99.92 420.7 102.66Z" /><path fill-rule="evenodd" class="shp4" d="M470.38 102.66C470.38 105.41 468.15 107.63 465.41 107.63C462.67 107.63 460.44 105.41 460.44 102.66C460.44 99.92 462.67 97.7 465.41 97.7C468.15 97.7 470.38 99.92 470.38 102.66Z" /><path fill-rule="evenodd" class="shp4" d="M122.6 152.35C122.6 155.09 120.37 157.32 117.63 157.32C114.89 157.32 112.66 155.09 112.66 152.35C112.66 149.6 114.89 147.38 117.63 147.38C120.37 147.38 122.6 149.6 122.6 152.35Z" /><path fill-rule="evenodd" class="shp4" d="M172.28 152.35C172.28 155.09 170.06 157.32 167.31 157.32C164.57 157.32 162.35 155.09 162.35 152.35C162.35 149.6 164.57 147.38 167.31 147.38C170.06 147.38 172.28 149.6 172.28 152.35Z" /><path fill-rule="evenodd" class="shp4" d="M221.96 152.35C221.96 155.09 219.74 157.32 217 157.32C214.25 157.32 212.03 155.09 212.03 152.35C212.03 149.6 214.25 147.38 217 147.38C219.74 147.38 221.96 149.6 221.96 152.35Z" /><path fill-rule="evenodd" class="shp4" d="M271.65 152.35C271.65 155.09 269.42 157.32 266.68 157.32C263.94 157.32 261.71 155.09 261.71 152.35C261.71 149.6 263.94 147.38 266.68 147.38C269.42 147.38 271.65 149.6 271.65 152.35Z" /><path fill-rule="evenodd" class="shp4" d="M321.33 152.35C321.33 155.09 319.11 157.32 316.36 157.32C313.62 157.32 311.39 155.09 311.39 152.35C311.39 149.6 313.62 147.38 316.36 147.38C319.11 147.38 321.33 149.6 321.33 152.35Z" /><path fill-rule="evenodd" class="shp4" d="M371.01 152.35C371.01 155.09 368.79 157.32 366.05 157.32C363.3 157.32 361.08 155.09 361.08 152.35C361.08 149.6 363.3 147.38 366.05 147.38C368.79 147.38 371.01 149.6 371.01 152.35Z" /><path fill-rule="evenodd" class="shp4" d="M420.7 152.35C420.7 155.09 418.47 157.32 415.73 157.32C412.98 157.32 410.76 155.09 410.76 152.35C410.76 149.6 412.98 147.38 415.73 147.38C418.47 147.38 420.7 149.6 420.7 152.35Z" /><path fill-rule="evenodd" class="shp4" d="M470.38 152.35C470.38 155.09 468.15 157.32 465.41 157.32C462.67 157.32 460.44 155.09 460.44 152.35C460.44 149.6 462.67 147.38 465.41 147.38C468.15 147.38 470.38 149.6 470.38 152.35Z" /><path fill-rule="evenodd" class="shp4" d="M122.6 202.03C122.6 204.77 120.37 207 117.63 207C114.89 207 112.66 204.77 112.66 202.03C112.66 199.29 114.89 197.06 117.63 197.06C120.37 197.06 122.6 199.29 122.6 202.03Z" /><path fill-rule="evenodd" class="shp4" d="M172.28 202.03C172.28 204.77 170.06 207 167.31 207C164.57 207 162.35 204.77 162.35 202.03C162.35 199.29 164.57 197.06 167.31 197.06C170.06 197.06 172.28 199.29 172.28 202.03Z" /><path fill-rule="evenodd" class="shp4" d="M221.96 202.03C221.96 204.77 219.74 207 217 207C214.25 207 212.03 204.77 212.03 202.03C212.03 199.29 214.25 197.06 217 197.06C219.74 197.06 221.96 199.29 221.96 202.03Z" /><path fill-rule="evenodd" class="shp4" d="M271.65 202.03C271.65 204.77 269.42 207 266.68 207C263.94 207 261.71 204.77 261.71 202.03C261.71 199.29 263.94 197.06 266.68 197.06C269.42 197.06 271.65 199.29 271.65 202.03Z" /><path fill-rule="evenodd" class="shp4" d="M321.33 202.03C321.33 204.77 319.11 207 316.36 207C313.62 207 311.39 204.77 311.39 202.03C311.39 199.29 313.62 197.06 316.36 197.06C319.11 197.06 321.33 199.29 321.33 202.03Z" /><path fill-rule="evenodd" class="shp4" d="M371.01 202.03C371.01 204.77 368.79 207 366.05 207C363.3 207 361.08 204.77 361.08 202.03C361.08 199.29 363.3 197.06 366.05 197.06C368.79 197.06 371.01 199.29 371.01 202.03Z" /><path fill-rule="evenodd" class="shp4" d="M420.7 202.03C420.7 204.77 418.47 207 415.73 207C412.98 207 410.76 204.77 410.76 202.03C410.76 199.29 412.98 197.06 415.73 197.06C418.47 197.06 420.7 199.29 420.7 202.03Z" /><path fill-rule="evenodd" class="shp4" d="M470.38 202.03C470.38 204.77 468.15 207 465.41 207C462.67 207 460.44 204.77 460.44 202.03C460.44 199.29 462.67 197.06 465.41 197.06C468.15 197.06 470.38 199.29 470.38 202.03Z" /><path fill-rule="evenodd" class="shp4" d="M122.6 251.71C122.6 254.46 120.37 256.68 117.63 256.68C114.89 256.68 112.66 254.46 112.66 251.71C112.66 248.97 114.89 246.74 117.63 246.74C120.37 246.74 122.6 248.97 122.6 251.71Z" /><path fill-rule="evenodd" class="shp4" d="M172.28 251.71C172.28 254.46 170.06 256.68 167.31 256.68C164.57 256.68 162.35 254.46 162.35 251.71C162.35 248.97 164.57 246.74 167.31 246.74C170.06 246.74 172.28 248.97 172.28 251.71Z" /><path fill-rule="evenodd" class="shp4" d="M221.96 251.71C221.96 254.46 219.74 256.68 217 256.68C214.25 256.68 212.03 254.46 212.03 251.71C212.03 248.97 214.25 246.74 217 246.74C219.74 246.74 221.96 248.97 221.96 251.71Z" /><path fill-rule="evenodd" class="shp4" d="M271.65 251.71C271.65 254.46 269.42 256.68 266.68 256.68C263.94 256.68 261.71 254.46 261.71 251.71C261.71 248.97 263.94 246.74 266.68 246.74C269.42 246.74 271.65 248.97 271.65 251.71Z" /><path fill-rule="evenodd" class="shp4" d="M321.33 251.71C321.33 254.46 319.11 256.68 316.36 256.68C313.62 256.68 311.39 254.46 311.39 251.71C311.39 248.97 313.62 246.74 316.36 246.74C319.11 246.74 321.33 248.97 321.33 251.71Z" /><path fill-rule="evenodd" class="shp4" d="M371.01 251.71C371.01 254.46 368.79 256.68 366.05 256.68C363.3 256.68 361.08 254.46 361.08 251.71C361.08 248.97 363.3 246.74 366.05 246.74C368.79 246.74 371.01 248.97 371.01 251.71Z" /><path fill-rule="evenodd" class="shp4" d="M420.7 251.71C420.7 254.46 418.47 256.68 415.73 256.68C412.98 256.68 410.76 254.46 410.76 251.71C410.76 248.97 412.98 246.74 415.73 246.74C418.47 246.74 420.7 248.97 420.7 251.71Z" /><path fill-rule="evenodd" class="shp4" d="M470.38 251.71C470.38 254.46 468.15 256.68 465.41 256.68C462.67 256.68 460.44 254.46 460.44 251.71C460.44 248.97 462.67 246.74 465.41 246.74C468.15 246.74 470.38 248.97 470.38 251.71Z" /><path fill-rule="evenodd" class="shp4" d="M122.6 301.4C122.6 304.14 120.37 306.36 117.63 306.36C114.89 306.36 112.66 304.14 112.66 301.4C112.66 298.65 114.89 296.43 117.63 296.43C120.37 296.43 122.6 298.65 122.6 301.4Z" /><path fill-rule="evenodd" class="shp4" d="M172.28 301.4C172.28 304.14 170.06 306.36 167.31 306.36C164.57 306.36 162.35 304.14 162.35 301.4C162.35 298.65 164.57 296.43 167.31 296.43C170.06 296.43 172.28 298.65 172.28 301.4Z" /><path fill-rule="evenodd" class="shp4" d="M221.96 301.4C221.96 304.14 219.74 306.36 217 306.36C214.25 306.36 212.03 304.14 212.03 301.4C212.03 298.65 214.25 296.43 217 296.43C219.74 296.43 221.96 298.65 221.96 301.4Z" /><path fill-rule="evenodd" class="shp4" d="M271.65 301.4C271.65 304.14 269.42 306.36 266.68 306.36C263.94 306.36 261.71 304.14 261.71 301.4C261.71 298.65 263.94 296.43 266.68 296.43C269.42 296.43 271.65 298.65 271.65 301.4Z" /><path fill-rule="evenodd" class="shp4" d="M321.33 301.4C321.33 304.14 319.11 306.36 316.36 306.36C313.62 306.36 311.39 304.14 311.39 301.4C311.39 298.65 313.62 296.43 316.36 296.43C319.11 296.43 321.33 298.65 321.33 301.4Z" /><path fill-rule="evenodd" class="shp4" d="M371.01 301.4C371.01 304.14 368.79 306.36 366.05 306.36C363.3 306.36 361.08 304.14 361.08 301.4C361.08 298.65 363.3 296.43 366.05 296.43C368.79 296.43 371.01 298.65 371.01 301.4Z" /><path fill-rule="evenodd" class="shp4" d="M420.7 301.4C420.7 304.14 418.47 306.36 415.73 306.36C412.98 306.36 410.76 304.14 410.76 301.4C410.76 298.65 412.98 296.43 415.73 296.43C418.47 296.43 420.7 298.65 420.7 301.4Z" /><path fill-rule="evenodd" class="shp4" d="M470.38 301.4C470.38 304.14 468.15 306.36 465.41 306.36C462.67 306.36 460.44 304.14 460.44 301.4C460.44 298.65 462.67 296.43 465.41 296.43C468.15 296.43 470.38 298.65 470.38 301.4Z" /><path fill-rule="evenodd" class="shp4" d="M122.6 351.08C122.6 353.82 120.37 356.05 117.63 356.05C114.89 356.05 112.66 353.82 112.66 351.08C112.66 348.33 114.89 346.11 117.63 346.11C120.37 346.11 122.6 348.33 122.6 351.08Z" /><path fill-rule="evenodd" class="shp4" d="M172.28 351.08C172.28 353.82 170.06 356.05 167.31 356.05C164.57 356.05 162.35 353.82 162.35 351.08C162.35 348.33 164.57 346.11 167.31 346.11C170.06 346.11 172.28 348.33 172.28 351.08Z" /><path fill-rule="evenodd" class="shp4" d="M221.96 351.08C221.96 353.82 219.74 356.05 217 356.05C214.25 356.05 212.03 353.82 212.03 351.08C212.03 348.33 214.25 346.11 217 346.11C219.74 346.11 221.96 348.33 221.96 351.08Z" /><path fill-rule="evenodd" class="shp4" d="M271.65 351.08C271.65 353.82 269.42 356.05 266.68 356.05C263.94 356.05 261.71 353.82 261.71 351.08C261.71 348.33 263.94 346.11 266.68 346.11C269.42 346.11 271.65 348.33 271.65 351.08Z" /><path fill-rule="evenodd" class="shp4" d="M321.33 351.08C321.33 353.82 319.11 356.05 316.36 356.05C313.62 356.05 311.39 353.82 311.39 351.08C311.39 348.33 313.62 346.11 316.36 346.11C319.11 346.11 321.33 348.33 321.33 351.08Z" /><path fill-rule="evenodd" class="shp4" d="M371.01 351.08C371.01 353.82 368.79 356.05 366.05 356.05C363.3 356.05 361.08 353.82 361.08 351.08C361.08 348.33 363.3 346.11 366.05 346.11C368.79 346.11 371.01 348.33 371.01 351.08Z" /><path fill-rule="evenodd" class="shp4" d="M420.7 351.08C420.7 353.82 418.47 356.05 415.73 356.05C412.98 356.05 410.76 353.82 410.76 351.08C410.76 348.33 412.98 346.11 415.73 346.11C418.47 346.11 420.7 348.33 420.7 351.08Z" /><path fill-rule="evenodd" class="shp4" d="M470.38 351.08C470.38 353.82 468.15 356.05 465.41 356.05C462.67 356.05 460.44 353.82 460.44 351.08C460.44 348.33 462.67 346.11 465.41 346.11C468.15 346.11 470.38 348.33 470.38 351.08Z" /><path fill-rule="evenodd" class="shp4" d="M122.6 400.76C122.6 403.5 120.37 405.73 117.63 405.73C114.89 405.73 112.66 403.5 112.66 400.76C112.66 398.02 114.89 395.79 117.63 395.79C120.37 395.79 122.6 398.02 122.6 400.76Z" /><path fill-rule="evenodd" class="shp4" d="M172.28 400.76C172.28 403.5 170.06 405.73 167.31 405.73C164.57 405.73 162.35 403.5 162.35 400.76C162.35 398.02 164.57 395.79 167.31 395.79C170.06 395.79 172.28 398.02 172.28 400.76Z" /><path fill-rule="evenodd" class="shp4" d="M221.96 400.76C221.96 403.5 219.74 405.73 217 405.73C214.25 405.73 212.03 403.5 212.03 400.76C212.03 398.02 214.25 395.79 217 395.79C219.74 395.79 221.96 398.02 221.96 400.76Z" /><path fill-rule="evenodd" class="shp4" d="M271.65 400.76C271.65 403.5 269.42 405.73 266.68 405.73C263.94 405.73 261.71 403.5 261.71 400.76C261.71 398.02 263.94 395.79 266.68 395.79C269.42 395.79 271.65 398.02 271.65 400.76Z" /><path fill-rule="evenodd" class="shp4" d="M321.33 400.76C321.33 403.5 319.11 405.73 316.36 405.73C313.62 405.73 311.39 403.5 311.39 400.76C311.39 398.02 313.62 395.79 316.36 395.79C319.11 395.79 321.33 398.02 321.33 400.76Z" /><path fill-rule="evenodd" class="shp4" d="M371.01 400.76C371.01 403.5 368.79 405.73 366.05 405.73C363.3 405.73 361.08 403.5 361.08 400.76C361.08 398.02 363.3 395.79 366.05 395.79C368.79 395.79 371.01 398.02 371.01 400.76Z" /><path fill-rule="evenodd" class="shp4" d="M420.7 400.76C420.7 403.5 418.47 405.73 415.73 405.73C412.98 405.73 410.76 403.5 410.76 400.76C410.76 398.02 412.98 395.79 415.73 395.79C418.47 395.79 420.7 398.02 420.7 400.76Z" /><path fill-rule="evenodd" class="shp4" d="M470.38 400.76C470.38 403.5 468.15 405.73 465.41 405.73C462.67 405.73 460.44 403.5 460.44 400.76C460.44 398.02 462.67 395.79 465.41 395.79C468.15 395.79 470.38 398.02 470.38 400.76Z" /><path fill-rule="evenodd" class="shp4" d="M122.6 450.44C122.6 453.19 120.37 455.41 117.63 455.41C114.89 455.41 112.66 453.19 112.66 450.44C112.66 447.7 114.89 445.48 117.63 445.48C120.37 445.48 122.6 447.7 122.6 450.44Z" /><path fill-rule="evenodd" class="shp4" d="M172.28 450.44C172.28 453.19 170.06 455.41 167.31 455.41C164.57 455.41 162.35 453.19 162.35 450.44C162.35 447.7 164.57 445.48 167.31 445.48C170.06 445.48 172.28 447.7 172.28 450.44Z" /><path fill-rule="evenodd" class="shp4" d="M221.96 450.44C221.96 453.19 219.74 455.41 217 455.41C214.25 455.41 212.03 453.19 212.03 450.44C212.03 447.7 214.25 445.48 217 445.48C219.74 445.48 221.96 447.7 221.96 450.44Z" /><path fill-rule="evenodd" class="shp4" d="M271.65 450.44C271.65 453.19 269.42 455.41 266.68 455.41C263.94 455.41 261.71 453.19 261.71 450.44C261.71 447.7 263.94 445.48 266.68 445.48C269.42 445.48 271.65 447.7 271.65 450.44Z" /><path fill-rule="evenodd" class="shp4" d="M321.33 450.44C321.33 453.19 319.11 455.41 316.36 455.41C313.62 455.41 311.39 453.19 311.39 450.44C311.39 447.7 313.62 445.48 316.36 445.48C319.11 445.48 321.33 447.7 321.33 450.44Z" /><path fill-rule="evenodd" class="shp4" d="M371.01 450.44C371.01 453.19 368.79 455.41 366.05 455.41C363.3 455.41 361.08 453.19 361.08 450.44C361.08 447.7 363.3 445.48 366.05 445.48C368.79 445.48 371.01 447.7 371.01 450.44Z" /><path fill-rule="evenodd" class="shp4" d="M420.7 450.44C420.7 453.19 418.47 455.41 415.73 455.41C412.98 455.41 410.76 453.19 410.76 450.44C410.76 447.7 412.98 445.48 415.73 445.48C418.47 445.48 420.7 447.7 420.7 450.44Z" /><path fill-rule="evenodd" class="shp4" d="M470.38 450.44C470.38 453.19 468.15 455.41 465.41 455.41C462.67 455.41 460.44 453.19 460.44 450.44C460.44 447.7 462.67 445.48 465.41 445.48C468.15 445.48 470.38 447.7 470.38 450.44Z" /></g></g></g></svg>
